<svg width="607" height="320" viewBox="0 0 607 320" fill="none" xmlns="http://www.w3.org/2000/svg">
<g clip-path="url(#clip0_39_2731)">
<path d="M273.801 157.657C334.995 157.657 384.603 122.365 384.603 78.8287C384.603 35.2928 334.995 0 273.801 0C212.607 0 163 35.2928 163 78.8287C163 122.365 212.607 157.657 273.801 157.657Z" fill="#EBF8F4"/>
<path d="M393.42 189.857C421.354 189.857 444 186.721 444 182.854C444 178.986 421.354 175.85 393.42 175.85C365.485 175.85 342.839 178.986 342.839 182.854C342.839 186.721 365.485 189.857 393.42 189.857Z" fill="#D5E3E0"/>
<path d="M287.397 194C337.864 194 378.776 190.522 378.776 186.232C378.776 181.941 337.864 178.463 287.397 178.463C236.931 178.463 196.019 181.941 196.019 186.232C196.019 190.522 236.931 194 287.397 194Z" fill="#D5E3E0"/>
<path d="M304.869 48.5769C304.869 48.5769 303.179 58.3741 290.859 70.9793C290.859 70.9793 289.497 69.2973 291.854 62.3272C294.21 55.357 304.169 46.2013 304.874 48.5722L304.869 48.5769Z" fill="#36A77D"/>
<path d="M304.869 48.5771C304.869 48.5771 293.781 56.4928 290.858 70.9795C290.858 70.9795 290.292 75.9493 291.996 80.254" stroke="black" stroke-miterlimit="10" stroke-linecap="round"/>
<path d="M275.068 56.488C275.068 56.488 278.177 54.1361 272.826 48.2587C267.741 42.676 262.362 37.6729 251.841 35.8389C251.841 35.8389 255.017 50.0595 261.872 53.4472C268.727 56.8348 275.068 56.4832 275.068 56.4832V56.488Z" fill="#36A77D"/>
<path d="M249.537 66.9455C249.537 66.9455 260.51 69.3354 279.124 63.135C279.124 63.135 277.972 61.2155 269.655 60.5693C261.339 59.9231 247.371 65.3491 249.537 66.9455Z" fill="#36A77D"/>
<path d="M249.537 66.9454C249.537 66.9454 262.705 59.9895 279.124 63.1349C279.124 63.1349 280.814 63.5578 282.532 65.8479" stroke="black" stroke-miterlimit="10" stroke-linecap="round"/>
<path d="M258.635 76.8661C258.635 76.8661 270.379 84.5822 288.993 78.3817C288.993 78.3817 285.375 71.8439 277.058 71.2025C268.741 70.5563 256.473 75.2696 258.639 76.8661H258.635Z" fill="#36A77D"/>
<path d="M258.635 76.8663C258.635 76.8663 271.293 70.97 288.993 78.382C288.993 78.382 291.073 79.3085 292.792 81.5986" stroke="black" stroke-miterlimit="10" stroke-linecap="round"/>
<path d="M298.385 39.2977C298.385 39.2977 301.851 38.8844 293.391 46.6907C285.403 54.0648 286.422 54.1218 286.422 54.1218C286.422 54.1218 289.454 43.0893 298.385 39.2977Z" fill="black"/>
<path d="M280.614 57.8613C280.614 57.8613 283.203 58.8591 287.874 54.5829C292.544 50.3067 294.281 40.7756 298.39 39.3027C298.39 39.3027 288.088 42.6239 280.619 57.866L280.614 57.8613Z" fill="#36A77D"/>
<path d="M297.59 90.607C292.325 80.0211 285.013 67.9909 275.068 56.488C275.068 56.488 272.626 53.2951 264.138 45.0184C255.65 36.7416 251.841 35.8389 251.841 35.8389" stroke="black" stroke-miterlimit="10" stroke-linecap="round"/>
<path d="M297.171 39.8062C297.171 39.8062 287.369 44.0728 280.614 57.8611C278.976 61.2012 280.938 63.8429 282.537 65.848" stroke="black" stroke-miterlimit="10" stroke-linecap="round"/>
<path d="M386.55 154.08C386.55 154.08 378.357 160.114 359.481 155.686C359.481 155.686 359.534 152.664 366.308 149.756C373.082 146.848 387.626 151.281 386.555 154.08H386.55Z" fill="#36A77D"/>
<path d="M385.965 153.529C385.965 153.529 373.035 149.214 359.568 155.358C359.568 155.358 355.202 157.819 352.712 161.725" stroke="black" stroke-miterlimit="10" stroke-linecap="round"/>
<path d="M359.234 140.805C359.234 140.805 362.967 141.935 364.595 134.162C366.137 126.779 367.037 119.49 362.352 109.917C362.352 109.917 352.679 120.83 353.955 128.356C355.231 135.882 359.239 140.8 359.239 140.8L359.234 140.805Z" fill="#36A77D"/>
<path d="M387.002 143.717C387.002 143.717 389.882 145.684 378.367 145.998C367.489 146.297 368.217 147.005 368.217 147.005C368.217 147.005 377.781 140.695 387.002 143.717Z" fill="black"/>
<path d="M361.381 145.998C361.381 145.998 362.671 148.45 369.008 148.302C375.344 148.155 382.942 142.126 387.003 143.717C387.003 143.717 377.063 139.446 361.381 145.998Z" fill="#36A77D"/>
<path d="M344.776 179.029C350.275 168.557 355.74 155.591 359.234 140.805C359.234 140.805 360.391 136.956 362.124 125.244C363.857 113.528 362.352 109.921 362.352 109.921" stroke="black" stroke-miterlimit="10" stroke-linecap="round"/>
<path d="M385.75 143.299C385.75 143.299 375.558 140.068 361.376 145.998C357.939 147.433 356.968 149.704 355.516 153.909" stroke="black" stroke-miterlimit="10" stroke-linecap="round"/>
<path d="M255.997 84.321C253.345 84.321 250.779 83.3945 248.742 81.6982L243.091 76.9945C241.058 75.303 238.645 74.3955 236.169 74.3955H208.135C205.592 74.3955 203.526 76.4528 203.526 78.9948V180.288C203.526 184.668 207.087 188.222 211.476 188.222H351.222C354.635 188.222 357.406 185.462 357.406 182.05V90.4976C357.406 87.091 354.64 84.3257 351.222 84.3257H255.992L255.997 84.321Z" fill="#02463A"/>
<path d="M357.406 182.559C357.406 182.559 347.895 164.756 346.942 162.708L320.95 109.859C320.298 108.453 318.884 107.555 317.337 107.555H220.75C217.237 107.555 212.162 105.716 209.463 103.473L205.564 100.228C203.531 98.5369 201.118 97.6294 198.642 97.6294H171.969C169.127 97.6294 167.199 100.509 168.284 103.127L200.546 181C202.355 185.367 206.621 188.213 211.353 188.213H355.664C356.606 188.213 357.473 187.41 357.473 186.469L357.406 182.559Z" fill="#00A17A"/>
<path d="M318.122 112.586L356.259 186.583" stroke="black" stroke-linejoin="round"/>
<path d="M302.403 125.334H269.55C268.655 125.334 267.822 124.883 267.341 124.141C266.232 122.426 267.484 120.184 269.55 120.184H302.403C303.298 120.184 304.131 120.635 304.612 121.376C305.721 123.091 304.469 125.334 302.403 125.334Z" stroke="black" stroke-linejoin="round"/>
<path d="M240.949 150.768L266.528 165.977" stroke="black" stroke-linecap="round" stroke-linejoin="round"/>
<path d="M261.862 150.036L245.791 166.072" stroke="black" stroke-linecap="round" stroke-linejoin="round"/>
<path d="M271.954 163.353C274.093 155.634 267.527 147.085 257.29 144.259C247.052 141.434 237.019 145.4 234.88 153.119C232.741 160.838 239.306 169.386 249.544 172.212C259.781 175.038 269.815 171.071 271.954 163.353Z" stroke="black" stroke-linecap="round" stroke-linejoin="round"/>
<path d="M385.845 84.3689C386.46 81.7224 383.637 78.425 380.966 78.9429C378.79 79.3657 377.71 79.8884 377.357 80.0024C376.677 80.2257 371.578 79.8979 370.993 80.7436C370.569 81.3565 373.23 82.0645 374.93 82.2355C375.282 82.2688 375.382 82.7249 375.082 82.9102C373.411 83.946 370.083 86.0461 369.798 86.564C369.417 87.2624 367.689 89.9659 368.179 90.2652C368.665 90.5645 370.141 89.2152 371.097 88.2554C372.054 87.2957 374.853 86.4784 374.853 86.4784C374.853 86.4784 369.988 91.3485 369.35 92.7026C368.393 94.7124 371.164 93.8334 371.164 93.8334C370.731 94.969 373.002 94.7219 373.54 94.2943C374.601 93.4486 377.876 89.5003 377.891 89.8994C377.905 90.2985 374.501 94.6031 374.849 95.6104C375.191 96.6129 376.567 95.3539 377.362 94.2943C378.157 93.2348 380.49 90.27 380.49 90.27C380.49 90.27 383.142 88.3362 385.355 85.0008C385.374 84.9723 385.841 84.3974 385.845 84.3689Z" fill="#B8AA7F"/>
<path d="M371.288 93.729L375.929 88.208" stroke="black" stroke-miterlimit="10" stroke-linecap="round"/>
<path d="M350.965 68.7131L367.655 58.322C367.76 58.2555 367.855 58.1795 367.951 58.0987L373.454 52.4447C374.653 51.3946 376.5 51.6417 377.386 52.9626L380.085 57.0012C380.656 57.8564 380.675 58.9634 380.137 59.8424L376.262 66.1141C375.977 66.575 375.558 66.9361 375.058 67.1499C371.94 68.4803 360.034 73.5024 352.931 75.5027C351.165 76.0016 349.451 74.5667 349.608 72.7422L349.784 70.6896C349.851 69.8819 350.289 69.155 350.97 68.7083L350.965 68.7131Z" fill="#00D68A"/>
<path d="M389.406 172.567L388.525 178.554C388.525 178.554 371.987 184.896 373.52 184.987C375.053 185.077 398.822 183.699 398.822 183.699L397.423 172.833L389.406 172.567Z" fill="black"/>
<path d="M394.015 75.7167C394.015 75.7167 395.333 88.3789 396.324 89.0346C397.314 89.6903 398.628 90.0229 398.628 90.0229L396.485 75.5552L394.015 75.7215V75.7167Z" stroke="#1F4940" stroke-miterlimit="10"/>
<path d="M420.131 67.0171C420.131 67.0171 426.834 80.6438 424.887 88.2316L387.726 83.1287L388.502 68.9746L420.131 67.0171Z" fill="black"/>
<path d="M421.15 69.7773C421.15 69.7773 415.899 79.4842 405.845 80.2634" stroke="#1F4940" stroke-miterlimit="10" stroke-linecap="round"/>
<path d="M412.743 78.187C412.743 78.187 414.78 84.4777 420.688 84.6108" stroke="#1F4940" stroke-miterlimit="10" stroke-linecap="round"/>
<path d="M387.726 83.1284C387.726 83.1284 377.772 118.507 377.51 129.895L384.784 173.769C384.784 173.769 391.725 177.213 398.951 174.429C399.246 174.315 395.286 151.675 395.009 128.361L415.784 84.9719L387.721 83.1284H387.726Z" fill="black"/>
<path d="M425.053 86.749L423.592 129.439L439.958 174.068C439.958 174.068 433.113 179.841 424.458 174.586L406.692 132.091L408.515 101.169L400.77 96.4891L399.618 83.0952L425.058 86.7442L425.053 86.749Z" fill="black"/>
<path d="M396.295 78.9424L404.183 84.8768L415.494 72.2764L388.021 76.1914L394.743 85.0906L396.295 78.9424Z" fill="white"/>
<path d="M428.39 171.845L426.962 177.009C426.962 177.009 416.527 188.303 418.065 188.303C419.602 188.303 436.736 181.309 436.736 181.309L434.541 170.552L428.39 171.845Z" fill="black"/>
<path d="M418.793 73.0557C418.793 73.0557 423.306 84.1262 420.054 130.57C420.054 130.57 431.451 155.605 437.364 175.408" stroke="#1F4940" stroke-miterlimit="10" stroke-linecap="round"/>
<path d="M402.207 97.5962L390.834 129.221L395.714 175.413" stroke="#1F4940" stroke-miterlimit="10" stroke-linecap="round"/>
<path d="M352.598 74.961C352.598 74.961 352.817 76.068 350.36 76.9137C347.904 77.7595 346.457 77.4886 346.457 77.4886C346.457 77.4886 340.944 70.9984 340.701 70.7703C340.459 70.5423 340.873 68.0478 342.506 67.0453C343.496 66.4371 347.338 67.4254 350.199 68.2996C352.193 68.9078 353.426 70.9033 353.093 72.9607C352.96 73.7684 352.798 74.5191 352.598 74.961Z" fill="#B8AA7F"/>
<path d="M348.075 73.2365C348.075 73.2365 343.567 72.5856 341.663 71.0176C341.663 71.0176 338.816 70.4475 338.212 70.8038C337.607 71.1602 337.112 71.6733 335.803 71.8919C334.494 72.1104 334.889 71.2409 336.264 70.0104C336.66 69.6588 337.707 68.3902 338.621 68.2191C339.849 67.9863 342.501 67.0503 342.501 67.0503L347.828 73.4075" fill="#B8AA7F"/>
<path d="M346.462 77.4885C346.462 77.4885 344.634 78.6336 343.991 78.6003C343.348 78.567 342.744 78.1869 342.587 77.1321C342.587 77.1321 339.183 77.7546 340.264 75.1841C340.264 75.1841 338.207 74.8515 338.155 73.5117C338.155 73.5117 336.331 72.6042 336.726 71.1503C337.126 69.6964 342.853 69.8247 342.853 69.8247L348.932 72.9035L346.467 77.4837L346.462 77.4885Z" fill="#B8AA7F"/>
<path d="M345.167 77.7309C345.167 77.7309 346.904 76.1963 346.805 75.5786C346.709 74.9609 346.381 74.6236 345.986 74.7424C345.457 74.8991 343.444 76.4338 342.577 77.1323" stroke="#09211E" stroke-width="0.78" stroke-linecap="round" stroke-linejoin="round"/>
<path d="M340.259 75.1889C340.259 75.1889 344.881 74.4667 344.924 73.7872C344.967 73.103 344.643 72.2003 343.677 72.3951C342.529 72.6232 339.24 73.4119 338.145 73.3881" stroke="#09211E" stroke-width="0.78" stroke-linecap="round" stroke-linejoin="round"/>
<path d="M345.99 74.7425C345.99 74.7425 346.838 74.2151 346.505 73.626C346.167 73.0368 345.71 72.8325 344.724 73.0843" stroke="#09211E" stroke-width="0.78" stroke-linecap="round" stroke-linejoin="round"/>
<path d="M338.055 71.4591C338.055 71.4591 338.307 71.1313 338.664 70.7939" stroke="#09211E" stroke-width="0.78" stroke-linecap="round" stroke-linejoin="round"/>
<path d="M334.228 58.2461L336.564 56.9354L348.58 78.27C348.93 78.8912 348.708 79.6806 348.085 80.0298L348.007 80.074C347.384 80.4232 346.593 80.2019 346.243 79.5807L334.228 58.2461Z" fill="#02463A"/>
<path d="M340.164 61.6621L341.173 63.4533C341.444 63.938 341.32 64.5271 340.897 64.7647L338.716 65.9858C338.288 66.2234 337.721 66.0238 337.45 65.5392L336.398 63.6719" fill="#02463A"/>
<path d="M335.498 44.1439C331.328 36.423 326.101 31.1111 322.783 30.864L322.892 30.1323L321.155 31.2631C318.17 33.2919 319.755 42.3479 324.697 51.4894C329.633 60.6356 336.055 66.4037 339.04 64.3749L340.673 63.2916L340.202 62.6644C341.349 59.1247 339.559 51.6699 335.498 44.1486V44.1439Z" fill="#02463A"/>
<path d="M340.549 63.3913C343.729 61.7375 342.406 52.9224 337.593 43.7022C332.779 34.482 326.299 28.3483 323.119 30.0021C319.939 31.6559 321.262 40.471 326.075 49.6912C330.888 58.9114 337.369 65.0451 340.549 63.3913Z" fill="#00A17A"/>
<path d="M335.589 44.1346C339.606 51.5751 341.187 58.7495 339.111 60.1607C337.04 61.5718 332.099 56.678 328.081 49.2375C324.063 41.7969 322.483 34.6225 324.558 33.2113C326.629 31.805 331.571 36.694 335.589 44.1346Z" fill="#B8E2D1"/>
<path d="M348.075 73.2365C348.075 73.2365 343.567 72.5856 341.663 71.0176C341.663 71.0176 338.816 70.4475 338.212 70.8038C337.607 71.1602 337.112 71.6733 335.803 71.8919C334.494 72.1104 334.889 71.2409 336.264 70.0104C336.66 69.6588 337.707 68.3902 338.621 68.2191C339.849 67.9863 342.501 67.0503 342.501 67.0503L347.828 73.4075" fill="#B8AA7F"/>
<path d="M348.075 73.2363C348.075 73.2363 343.567 72.5854 341.663 71.0175C341.663 71.0175 338.816 70.4473 338.212 70.8037C337.607 71.16 337.112 71.6732 335.803 71.8917" stroke="#09211E" stroke-width="0.78" stroke-linecap="round" stroke-linejoin="round"/>
<path d="M335.589 44.1344C331.571 36.6939 326.629 31.8 324.559 33.2112C324.397 33.3205 324.259 33.4725 324.14 33.653C326.534 33.8003 330.728 38.3378 334.222 44.8138C337.926 51.6699 339.554 58.2932 338.169 60.3981C338.526 60.4218 338.845 60.3458 339.116 60.1605C341.187 58.7541 339.611 51.5749 335.593 44.1344H335.589Z" fill="#02463A"/>
<path d="M332.79 41.2171C334.927 45.175 335.765 48.9902 334.665 49.741C333.561 50.4917 330.938 47.8879 328.795 43.9301C326.653 39.9723 325.82 36.157 326.92 35.4063C328.019 34.6556 330.647 37.2593 332.79 41.2171Z" fill="white"/>
<path d="M412.733 53.9604L409.42 42.1535C408.201 37.8203 406.068 33.8102 403.25 30.2942C398.256 24.07 385.141 24.6354 385.141 24.6354L375.049 31.8812C375.02 31.9002 374.987 31.9144 374.958 31.9334C369.017 35.2071 367.927 40.2529 368.079 48.0355L368.446 58.5407L375.277 52.0314L377 54.3928C376.991 54.3263 376.986 54.2597 376.981 54.198L377.8 55.4808L377.005 54.3928C377.248 56.5594 378.381 62.0804 383.646 64.6603L386.645 69.3736L385.85 75.8829C414.004 86.0982 421.012 66.0382 421.012 66.0382L412.738 53.9699L412.733 53.9604Z" fill="#00D68A"/>
<path d="M373.834 50.9434L377.519 55.4428C377.519 55.4428 377.015 62.375 384.017 64.5986" stroke="black" stroke-miterlimit="10" stroke-linecap="round"/>
<path d="M401.808 60.0991L380.38 78.7289C380.38 78.7289 384.622 84.6585 386.531 84.8676L412.2 68.5659" fill="#00D68A"/>
<path d="M386.745 73.0179C386.745 73.0179 398.413 59.8901 402.445 57.9849" stroke="black" stroke-miterlimit="10" stroke-linecap="round"/>
<path d="M396.266 45.9399C396.266 45.9399 396.823 48.8762 400.56 59.2008" stroke="black" stroke-miterlimit="10" stroke-linecap="round"/>
<path d="M389.506 83.1808C389.506 83.1808 413.48 67.9387 413.69 63.4915C413.899 59.0443 407.644 38.3999 407.644 38.3999" stroke="black" stroke-miterlimit="10" stroke-linecap="round"/>
<path d="M392.129 61.5813C392.129 61.5813 397.899 62.1229 399.689 56.8965" stroke="black" stroke-miterlimit="10" stroke-linecap="round"/>
<path d="M368.765 57.6899C368.765 57.6899 370.355 56.103 371.945 57.9037" stroke="black" stroke-miterlimit="10" stroke-linecap="round"/>
<path d="M349.889 68.1714L353.283 66.5845C353.283 66.5845 357.42 71.0839 355.935 74.9467L351.798 76.1631C351.798 76.1631 353.707 71.9297 349.889 68.1714Z" fill="white"/>
<path d="M381.737 76.3534C381.737 76.3534 386.193 78.2587 389.373 83.7369L385.95 86.3549C385.95 86.3549 381.733 80.3207 378.791 79.3657L381.733 76.3486L381.737 76.3534Z" fill="white"/>
<path d="M377.996 23.9463L392.049 24.9773C392.049 24.9773 392.582 32.6934 384.094 39.4973L380.281 35.8008L378.205 40.3002C378.205 40.3002 374.982 38.49 374.544 33.2921L375.23 26.9824L377.991 23.9463H377.996Z" fill="white"/>
<path d="M385.141 24.6355C385.655 25.0726 385.898 25.7425 385.779 26.4077C385.327 28.9164 383.965 34.998 381.228 35.7582C377.767 36.7228 375.61 29.9047 375.61 29.9047L377.334 17.9932L385.141 24.6355Z" fill="#B8AA7F"/>
<path d="M374.183 27.4576L374.14 29.1918C374.106 29.2108 373.516 34.328 375.239 34.5275C382.442 33.2257 382.899 26.4123 383.513 19.6465C383.513 19.6465 373.483 26.1082 374.183 27.4624V27.4576Z" fill="black"/>
<path d="M362.186 14.686C362.186 14.686 360.429 31.3867 370.826 34.2613C381.223 37.1358 383.713 20.2165 383.351 14.3629C382.994 8.50927 380.381 6.33318 373.092 6.07186C362.314 5.68225 362.186 14.686 362.186 14.686Z" fill="#B8AA7F"/>
<path d="M371.526 22.7585C371.555 23.3619 371.269 23.8608 370.888 23.8798C370.507 23.8988 370.169 23.4284 370.141 22.825C370.112 22.2216 370.398 21.7227 370.779 21.7037C371.159 21.6847 371.497 22.1551 371.526 22.7585Z" fill="black"/>
<path d="M372.669 19.6796C372.669 19.6796 369.236 21.1715 368.898 18.582" stroke="black" stroke-miterlimit="10" stroke-linecap="round"/>
<path d="M364.728 19.6895C364.728 19.6895 363.595 21.6565 362.291 20.7823" stroke="black" stroke-miterlimit="10" stroke-linecap="round"/>
<path d="M362.905 23.1768C362.905 23.1768 363.552 22.9677 364.504 23.4714" stroke="black" stroke-miterlimit="10" stroke-linecap="round"/>
<path d="M373.083 29.4105C373.083 29.4105 374.02 28.5173 374.792 28.313" stroke="black" stroke-miterlimit="10" stroke-linecap="round"/>
<path d="M366.056 25.1011C366.056 25.1011 365.461 26.4552 366.98 27.1061" stroke="black" stroke-miterlimit="10" stroke-linecap="round"/>
<path d="M362.067 18.2782C362.067 18.2782 362.243 13.3891 364.414 10.6238C364.414 10.6238 367.399 17.3944 380.262 18.7771L384.008 17.9931C384.008 17.9931 385.541 10.1535 380.166 7.06513C374.792 3.97679 366.57 5.6825 363.923 8.462C359.439 13.1705 362.067 18.2829 362.067 18.2829V18.2782Z" fill="black"/>
<path d="M377.762 17.8839L379.99 22.2741L381.561 17.3423L377.762 17.8839Z" fill="black"/>
<path d="M385.541 21.8177C384.898 24.1506 383.061 25.6948 381.433 25.2624C379.805 24.8301 379.005 22.5922 379.643 20.2546C380.285 17.9217 382.123 16.3775 383.751 16.8099C385.379 17.2422 386.179 19.4801 385.541 21.8177Z" fill="#B8AA7F"/>
<path d="M383.908 19.7843C383.908 19.7843 382.075 18.2116 381.076 21.0862C381.076 21.0862 382.147 22.217 381.471 23.1102C381.471 23.1102 382.528 23.3478 383.047 22.4213" stroke="black" stroke-linecap="round" stroke-linejoin="round"/>
<path d="M383.113 20.882C383.113 20.882 383.013 20.2406 382.299 19.5137" stroke="black" stroke-linecap="round" stroke-linejoin="round"/>
<path d="M384.004 25.1818C384.004 26.056 383.294 26.764 382.418 26.764C381.542 26.764 380.833 26.056 380.833 25.1818C380.833 24.3076 381.542 23.5996 382.418 23.5996C383.294 23.5996 384.004 24.3076 384.004 25.1818Z" fill="white"/>
<path d="M379.552 9.10815C379.552 9.10815 381.504 -1.07387 386.065 0.874159C390.625 2.82219 392.687 12.5718 388.345 13.332C384.003 14.0923 380.638 12.0302 380.638 12.0302L379.552 9.1034V9.10815Z" fill="black"/>
<path d="M379.609 12.0352C379.609 12.0352 387.155 18.3164 389.597 12.5245" stroke="black" stroke-miterlimit="10" stroke-linecap="round"/>
<path d="M408.115 100.927L399.384 96.0093" stroke="#1F4940" stroke-miterlimit="10" stroke-linecap="round"/>
<path d="M209.901 36.3331C219.336 36.5897 227.144 44.1347 227.686 53.5375C228.005 59.068 225.858 64.0997 222.245 67.6536C221.712 68.1763 221.464 68.927 221.588 69.6634L222.945 77.6788L214.595 72.823C214.119 72.5475 213.557 72.4429 213.019 72.5522C210.977 72.9608 208.816 73.0368 206.588 72.6995C198.338 71.4499 191.902 64.6365 191.14 56.3408C190.126 45.2893 198.971 36.029 209.901 36.3283V36.3331Z" fill="#B8E2D1"/>
<path d="M208.554 60.9541L208.502 56.5782C209.139 56.4214 209.725 56.2219 210.253 55.97C210.782 55.7182 211.244 55.4331 211.639 55.1053C212.034 54.7775 212.367 54.4116 212.638 54.0078C212.905 53.6039 213.11 53.1668 213.248 52.7011C213.386 52.2355 213.457 51.7414 213.457 51.2282C213.457 50.487 213.276 49.7886 212.915 49.1329C212.553 48.4773 212.034 47.9451 211.358 47.5412C210.682 47.1374 209.882 46.9331 208.944 46.9331C207.94 46.9331 207.011 47.2087 206.155 47.7598C205.298 48.311 204.645 49.2517 204.198 50.5821L203.731 50.2732C204.127 49.0141 204.793 48.0496 205.726 47.375C206.659 46.7003 207.721 46.3677 208.916 46.3677C209.934 46.3677 210.829 46.5815 211.601 47.0139C212.372 47.4462 212.972 48.0259 213.405 48.7623C213.838 49.494 214.052 50.3208 214.052 51.233C214.052 51.9219 213.933 52.5681 213.7 53.1763C213.467 53.7797 213.138 54.3308 212.715 54.8345C212.291 55.3334 211.777 55.7705 211.172 56.1411C210.568 56.5117 209.882 56.792 209.125 56.9821L209.073 60.9684H208.554V60.9541ZM208.244 64.2135C208.244 63.9902 208.306 63.8049 208.425 63.6576C208.544 63.5103 208.711 63.4391 208.92 63.4391C209.163 63.4391 209.335 63.5103 209.439 63.6481C209.544 63.7859 209.596 63.976 209.596 64.2183C209.596 64.4273 209.539 64.6079 209.43 64.7599C209.316 64.9167 209.149 64.9927 208.925 64.9927C208.701 64.9927 208.53 64.9215 208.421 64.7837C208.306 64.6459 208.254 64.4558 208.254 64.2135H208.244Z" fill="black"/>
</g>
<path d="M209.067 238V226.06H204.987V224H215.727V226.06H211.627V238H209.067ZM217.564 238V223.6H220.124V229.6C220.457 229.053 220.904 228.627 221.464 228.32C222.037 228 222.69 227.84 223.424 227.84C224.65 227.84 225.597 228.227 226.264 229C226.944 229.773 227.284 230.907 227.284 232.4V238H224.744V232.64C224.744 231.787 224.57 231.133 224.224 230.68C223.89 230.227 223.357 230 222.624 230C221.904 230 221.304 230.253 220.824 230.76C220.357 231.267 220.124 231.973 220.124 232.88V238H217.564ZM234.552 238.24C233.552 238.24 232.665 238.027 231.892 237.6C231.118 237.173 230.512 236.573 230.072 235.8C229.632 235.027 229.412 234.133 229.412 233.12C229.412 232.093 229.625 231.18 230.052 230.38C230.492 229.58 231.092 228.96 231.852 228.52C232.625 228.067 233.532 227.84 234.572 227.84C235.545 227.84 236.405 228.053 237.152 228.48C237.898 228.907 238.478 229.493 238.892 230.24C239.318 230.973 239.532 231.793 239.532 232.7C239.532 232.847 239.525 233 239.512 233.16C239.512 233.32 239.505 233.487 239.492 233.66H231.952C232.005 234.433 232.272 235.04 232.752 235.48C233.245 235.92 233.838 236.14 234.532 236.14C235.052 236.14 235.485 236.027 235.832 235.8C236.192 235.56 236.458 235.253 236.632 234.88H239.232C239.045 235.507 238.732 236.08 238.292 236.6C237.865 237.107 237.332 237.507 236.692 237.8C236.065 238.093 235.352 238.24 234.552 238.24ZM234.572 229.92C233.945 229.92 233.392 230.1 232.912 230.46C232.432 230.807 232.125 231.34 231.992 232.06H236.932C236.892 231.407 236.652 230.887 236.212 230.5C235.772 230.113 235.225 229.92 234.572 229.92ZM246.51 238V224H249.07V236H255.27V238H246.51ZM258.846 226.54C258.379 226.54 257.993 226.4 257.686 226.12C257.393 225.84 257.246 225.487 257.246 225.06C257.246 224.633 257.393 224.287 257.686 224.02C257.993 223.74 258.379 223.6 258.846 223.6C259.313 223.6 259.693 223.74 259.986 224.02C260.293 224.287 260.446 224.633 260.446 225.06C260.446 225.487 260.293 225.84 259.986 226.12C259.693 226.4 259.313 226.54 258.846 226.54ZM257.566 238V228.08H260.126V238H257.566ZM268.678 238.24C267.931 238.24 267.278 238.1 266.718 237.82C266.158 237.54 265.705 237.147 265.358 236.64L265.078 238H262.798V223.6H265.358V229.5C265.678 229.06 266.098 228.673 266.618 228.34C267.151 228.007 267.838 227.84 268.678 227.84C269.611 227.84 270.445 228.067 271.178 228.52C271.911 228.973 272.491 229.593 272.918 230.38C273.345 231.167 273.558 232.06 273.558 233.06C273.558 234.06 273.345 234.953 272.918 235.74C272.491 236.513 271.911 237.127 271.178 237.58C270.445 238.02 269.611 238.24 268.678 238.24ZM268.138 236C268.951 236 269.625 235.727 270.158 235.18C270.691 234.633 270.958 233.927 270.958 233.06C270.958 232.193 270.691 231.48 270.158 230.92C269.625 230.36 268.951 230.08 268.138 230.08C267.311 230.08 266.631 230.36 266.098 230.92C265.578 231.467 265.318 232.173 265.318 233.04C265.318 233.907 265.578 234.62 266.098 235.18C266.631 235.727 267.311 236 268.138 236ZM275.845 238V228.08H278.125L278.365 229.94C278.725 229.3 279.212 228.793 279.825 228.42C280.452 228.033 281.185 227.84 282.025 227.84V230.54H281.305C280.745 230.54 280.245 230.627 279.805 230.8C279.365 230.973 279.018 231.273 278.765 231.7C278.525 232.127 278.405 232.72 278.405 233.48V238H275.845ZM287.195 238.24C286.341 238.24 285.641 238.107 285.095 237.84C284.548 237.56 284.141 237.193 283.875 236.74C283.608 236.287 283.475 235.787 283.475 235.24C283.475 234.32 283.835 233.573 284.555 233C285.275 232.427 286.355 232.14 287.795 232.14H290.315V231.9C290.315 231.22 290.121 230.72 289.735 230.4C289.348 230.08 288.868 229.92 288.295 229.92C287.775 229.92 287.321 230.047 286.935 230.3C286.548 230.54 286.308 230.9 286.215 231.38H283.715C283.781 230.66 284.021 230.033 284.435 229.5C284.861 228.967 285.408 228.56 286.075 228.28C286.741 227.987 287.488 227.84 288.315 227.84C289.728 227.84 290.841 228.193 291.655 228.9C292.468 229.607 292.875 230.607 292.875 231.9V238H290.695L290.455 236.4C290.161 236.933 289.748 237.373 289.215 237.72C288.695 238.067 288.021 238.24 287.195 238.24ZM287.775 236.24C288.508 236.24 289.075 236 289.475 235.52C289.888 235.04 290.148 234.447 290.255 233.74H288.075C287.395 233.74 286.908 233.867 286.615 234.12C286.321 234.36 286.175 234.66 286.175 235.02C286.175 235.407 286.321 235.707 286.615 235.92C286.908 236.133 287.295 236.24 287.775 236.24ZM295.318 238V228.08H297.598L297.838 229.94C298.198 229.3 298.684 228.793 299.298 228.42C299.924 228.033 300.658 227.84 301.498 227.84V230.54H300.778C300.218 230.54 299.718 230.627 299.278 230.8C298.838 230.973 298.491 231.273 298.238 231.7C297.998 232.127 297.878 232.72 297.878 233.48V238H295.318ZM304.487 242.4L306.787 237.34H306.187L302.327 228.08H305.107L307.887 235.06L310.787 228.08H313.507L307.207 242.4H304.487ZM321.326 226.54C320.86 226.54 320.473 226.4 320.166 226.12C319.873 225.84 319.726 225.487 319.726 225.06C319.726 224.633 319.873 224.287 320.166 224.02C320.473 223.74 320.86 223.6 321.326 223.6C321.793 223.6 322.173 223.74 322.466 224.02C322.773 224.287 322.926 224.633 322.926 225.06C322.926 225.487 322.773 225.84 322.466 226.12C322.173 226.4 321.793 226.54 321.326 226.54ZM320.046 238V228.08H322.606V238H320.046ZM329.379 238.24C328.499 238.24 327.725 238.1 327.059 237.82C326.392 237.527 325.859 237.127 325.459 236.62C325.059 236.113 324.819 235.527 324.739 234.86H327.319C327.399 235.247 327.612 235.58 327.959 235.86C328.319 236.127 328.779 236.26 329.339 236.26C329.899 236.26 330.305 236.147 330.559 235.92C330.825 235.693 330.959 235.433 330.959 235.14C330.959 234.713 330.772 234.427 330.399 234.28C330.025 234.12 329.505 233.967 328.839 233.82C328.412 233.727 327.979 233.613 327.539 233.48C327.099 233.347 326.692 233.18 326.319 232.98C325.959 232.767 325.665 232.5 325.439 232.18C325.212 231.847 325.099 231.44 325.099 230.96C325.099 230.08 325.445 229.34 326.139 228.74C326.845 228.14 327.832 227.84 329.099 227.84C330.272 227.84 331.205 228.113 331.899 228.66C332.605 229.207 333.025 229.96 333.159 230.92H330.739C330.592 230.187 330.039 229.82 329.079 229.82C328.599 229.82 328.225 229.913 327.959 230.1C327.705 230.287 327.579 230.52 327.579 230.8C327.579 231.093 327.772 231.327 328.159 231.5C328.545 231.673 329.059 231.833 329.699 231.98C330.392 232.14 331.025 232.32 331.599 232.52C332.185 232.707 332.652 232.993 332.999 233.38C333.345 233.753 333.519 234.293 333.519 235C333.532 235.613 333.372 236.167 333.039 236.66C332.705 237.153 332.225 237.54 331.599 237.82C330.972 238.1 330.232 238.24 329.379 238.24ZM340.612 238V224H349.752V226.06H343.172V229.9H349.152V231.9H343.172V235.94H349.752V238H340.612ZM352.114 238V228.08H354.374L354.594 229.42C354.914 228.94 355.334 228.56 355.854 228.28C356.388 227.987 357.001 227.84 357.694 227.84C359.228 227.84 360.314 228.433 360.954 229.62C361.314 229.073 361.794 228.64 362.394 228.32C363.008 228 363.674 227.84 364.394 227.84C365.688 227.84 366.681 228.227 367.374 229C368.068 229.773 368.414 230.907 368.414 232.4V238H365.854V232.64C365.854 231.787 365.688 231.133 365.354 230.68C365.034 230.227 364.534 230 363.854 230C363.161 230 362.601 230.253 362.174 230.76C361.761 231.267 361.554 231.973 361.554 232.88V238H358.994V232.64C358.994 231.787 358.828 231.133 358.494 230.68C358.161 230.227 357.648 230 356.954 230C356.274 230 355.721 230.253 355.294 230.76C354.881 231.267 354.674 231.973 354.674 232.88V238H352.114ZM370.845 242.4V228.08H373.125L373.405 229.5C373.725 229.06 374.145 228.673 374.665 228.34C375.198 228.007 375.885 227.84 376.725 227.84C377.658 227.84 378.492 228.067 379.225 228.52C379.958 228.973 380.538 229.593 380.965 230.38C381.392 231.167 381.605 232.06 381.605 233.06C381.605 234.06 381.392 234.953 380.965 235.74C380.538 236.513 379.958 237.127 379.225 237.58C378.492 238.02 377.658 238.24 376.725 238.24C375.978 238.24 375.325 238.1 374.765 237.82C374.205 237.54 373.752 237.147 373.405 236.64V242.4H370.845ZM376.185 236C376.998 236 377.672 235.727 378.205 235.18C378.738 234.633 379.005 233.927 379.005 233.06C379.005 232.193 378.738 231.48 378.205 230.92C377.672 230.36 376.998 230.08 376.185 230.08C375.358 230.08 374.678 230.36 374.145 230.92C373.625 231.467 373.365 232.173 373.365 233.04C373.365 233.907 373.625 234.62 374.145 235.18C374.678 235.727 375.358 236 376.185 236ZM387.921 238C386.881 238 386.048 237.747 385.421 237.24C384.795 236.733 384.481 235.833 384.481 234.54V230.22H382.781V228.08H384.481L384.781 225.42H387.041V228.08H389.721V230.22H387.041V234.56C387.041 235.04 387.141 235.373 387.341 235.56C387.555 235.733 387.915 235.82 388.421 235.82H389.661V238H387.921ZM393.159 242.4L395.459 237.34H394.859L390.999 228.08H393.779L396.559 235.06L399.459 228.08H402.179L395.879 242.4H393.159Z" fill="black"/>
<path d="M7.73133 288.24C6.358 288.24 5.17133 287.94 4.17133 287.34C3.18466 286.727 2.41799 285.88 1.87133 284.8C1.32466 283.707 1.05133 282.44 1.05133 281C1.05133 279.573 1.32466 278.32 1.87133 277.24C2.41799 276.147 3.18466 275.293 4.17133 274.68C5.17133 274.067 6.358 273.76 7.73133 273.76C9.33133 273.76 10.6313 274.147 11.6313 274.92C12.6447 275.68 13.2913 276.747 13.5713 278.12H11.7113C11.498 277.253 11.058 276.56 10.3913 276.04C9.738 275.507 8.85133 275.24 7.73133 275.24C6.73133 275.24 5.858 275.473 5.11133 275.94C4.36466 276.393 3.78466 277.053 3.37133 277.92C2.97133 278.773 2.77133 279.8 2.77133 281C2.77133 282.2 2.97133 283.233 3.37133 284.1C3.78466 284.953 4.36466 285.613 5.11133 286.08C5.858 286.533 6.73133 286.76 7.73133 286.76C8.85133 286.76 9.738 286.507 10.3913 286C11.058 285.48 11.498 284.793 11.7113 283.94H13.5713C13.2913 285.287 12.6447 286.34 11.6313 287.1C10.6313 287.86 9.33133 288.24 7.73133 288.24ZM15.8859 288V273.6H17.5659V288H15.8859ZM21.3395 275.88C21.0061 275.88 20.7261 275.773 20.4995 275.56C20.2861 275.333 20.1795 275.053 20.1795 274.72C20.1795 274.4 20.2861 274.133 20.4995 273.92C20.7261 273.707 21.0061 273.6 21.3395 273.6C21.6595 273.6 21.9328 273.707 22.1595 273.92C22.3861 274.133 22.4995 274.4 22.4995 274.72C22.4995 275.053 22.3861 275.333 22.1595 275.56C21.9328 275.773 21.6595 275.88 21.3395 275.88ZM20.4995 288V278.08H22.1795V288H20.4995ZM29.6646 288.24C28.7179 288.24 27.8646 288.027 27.1046 287.6C26.3579 287.16 25.7646 286.553 25.3246 285.78C24.8979 284.993 24.6846 284.08 24.6846 283.04C24.6846 282 24.8979 281.093 25.3246 280.32C25.7646 279.533 26.3579 278.927 27.1046 278.5C27.8646 278.06 28.7179 277.84 29.6646 277.84C30.8379 277.84 31.8246 278.147 32.6246 278.76C33.4379 279.373 33.9513 280.193 34.1646 281.22H32.4446C32.3113 280.607 31.9846 280.133 31.4646 279.8C30.9446 279.453 30.3379 279.28 29.6446 279.28C29.0846 279.28 28.5579 279.42 28.0646 279.7C27.5713 279.98 27.1713 280.4 26.8646 280.96C26.5579 281.52 26.4046 282.213 26.4046 283.04C26.4046 283.867 26.5579 284.56 26.8646 285.12C27.1713 285.68 27.5713 286.107 28.0646 286.4C28.5579 286.68 29.0846 286.82 29.6446 286.82C30.3379 286.82 30.9446 286.653 31.4646 286.32C31.9846 285.973 32.3113 285.487 32.4446 284.86H34.1646C33.9646 285.86 33.4579 286.673 32.6446 287.3C31.8313 287.927 30.8379 288.24 29.6646 288.24ZM36.5109 288V273.6H38.1909V282.26L42.2509 278.08H44.3109L39.9109 282.56L44.8709 288H42.7309L38.1909 282.86V288H36.5109ZM55.802 288C54.8953 288 54.182 287.78 53.662 287.34C53.142 286.9 52.882 286.107 52.882 284.96V279.5H51.162V278.08H52.882L53.102 275.7H54.562V278.08H57.482V279.5H54.562V284.96C54.562 285.587 54.6886 286.013 54.942 286.24C55.1953 286.453 55.642 286.56 56.282 286.56H57.322V288H55.802ZM59.6163 288V273.6H61.2963V279.78C61.6297 279.167 62.103 278.693 62.7163 278.36C63.3297 278.013 63.9963 277.84 64.7163 277.84C65.863 277.84 66.783 278.2 67.4763 278.92C68.1697 279.627 68.5163 280.72 68.5163 282.2V288H66.8563V282.38C66.8563 280.313 66.023 279.28 64.3563 279.28C63.4897 279.28 62.763 279.593 62.1763 280.22C61.5897 280.833 61.2963 281.713 61.2963 282.86V288H59.6163ZM75.5216 288.24C74.575 288.24 73.735 288.027 73.0016 287.6C72.2683 287.16 71.6883 286.553 71.2616 285.78C70.8483 285.007 70.6416 284.093 70.6416 283.04C70.6416 282 70.8483 281.093 71.2616 280.32C71.675 279.533 72.2483 278.927 72.9816 278.5C73.7283 278.06 74.5883 277.84 75.5616 277.84C76.5216 277.84 77.3483 278.06 78.0416 278.5C78.7483 278.927 79.2883 279.493 79.6616 280.2C80.035 280.907 80.2216 281.667 80.2216 282.48C80.2216 282.627 80.215 282.773 80.2016 282.92C80.2016 283.067 80.2016 283.233 80.2016 283.42H72.3016C72.3416 284.18 72.515 284.813 72.8216 285.32C73.1416 285.813 73.535 286.187 74.0016 286.44C74.4816 286.693 74.9883 286.82 75.5216 286.82C76.215 286.82 76.795 286.66 77.2616 286.34C77.7283 286.02 78.0683 285.587 78.2816 285.04H79.9416C79.675 285.96 79.1616 286.727 78.4016 287.34C77.655 287.94 76.695 288.24 75.5216 288.24ZM75.5216 279.26C74.7216 279.26 74.0083 279.507 73.3816 280C72.7683 280.48 72.415 281.187 72.3216 282.12H78.5616C78.5216 281.227 78.215 280.527 77.6416 280.02C77.0683 279.513 76.3616 279.26 75.5216 279.26ZM87.3613 276.84L87.1013 272.9H88.7613L88.5213 276.84H87.3613ZM90.7659 282.9V281.48H94.5859V277.84H96.0859V281.48H99.9059V282.9H96.0859V286.56H94.5859V282.9H90.7659ZM102.166 276.84L101.906 272.9H103.566L103.326 276.84H102.166ZM116.284 288.24C115.47 288.24 114.744 288.073 114.104 287.74C113.477 287.407 112.997 286.94 112.664 286.34L112.504 288H110.984V273.6H112.664V279.72C112.984 279.24 113.437 278.807 114.024 278.42C114.624 278.033 115.384 277.84 116.304 277.84C117.29 277.84 118.15 278.067 118.884 278.52C119.617 278.973 120.184 279.593 120.584 280.38C120.997 281.167 121.204 282.06 121.204 283.06C121.204 284.06 120.997 284.953 120.584 285.74C120.184 286.513 119.61 287.127 118.864 287.58C118.13 288.02 117.27 288.24 116.284 288.24ZM116.104 286.78C116.77 286.78 117.357 286.627 117.864 286.32C118.37 286 118.77 285.56 119.064 285C119.357 284.44 119.504 283.787 119.504 283.04C119.504 282.293 119.357 281.64 119.064 281.08C118.77 280.52 118.37 280.087 117.864 279.78C117.357 279.46 116.77 279.3 116.104 279.3C115.437 279.3 114.85 279.46 114.344 279.78C113.837 280.087 113.437 280.52 113.144 281.08C112.85 281.64 112.704 282.293 112.704 283.04C112.704 283.787 112.85 284.44 113.144 285C113.437 285.56 113.837 286 114.344 286.32C114.85 286.627 115.437 286.78 116.104 286.78ZM127.162 288.24C125.989 288.24 125.055 287.887 124.362 287.18C123.669 286.46 123.322 285.36 123.322 283.88V278.08H125.002V283.7C125.002 285.767 125.849 286.8 127.542 286.8C128.409 286.8 129.122 286.493 129.682 285.88C130.255 285.253 130.542 284.367 130.542 283.22V278.08H132.222V288H130.702L130.582 286.22C130.275 286.847 129.815 287.34 129.202 287.7C128.602 288.06 127.922 288.24 127.162 288.24ZM138.907 288C138.001 288 137.287 287.78 136.767 287.34C136.247 286.9 135.987 286.107 135.987 284.96V279.5H134.267V278.08H135.987L136.207 275.7H137.667V278.08H140.587V279.5H137.667V284.96C137.667 285.587 137.794 286.013 138.047 286.24C138.301 286.453 138.747 286.56 139.387 286.56H140.427V288H138.907ZM146.642 288C145.735 288 145.022 287.78 144.502 287.34C143.982 286.9 143.722 286.107 143.722 284.96V279.5H142.002V278.08H143.722L143.942 275.7H145.402V278.08H148.322V279.5H145.402V284.96C145.402 285.587 145.528 286.013 145.782 286.24C146.035 286.453 146.482 286.56 147.122 286.56H148.162V288H146.642ZM154.703 288.24C153.769 288.24 152.929 288.027 152.183 287.6C151.436 287.173 150.843 286.573 150.403 285.8C149.976 285.013 149.763 284.093 149.763 283.04C149.763 281.987 149.983 281.073 150.423 280.3C150.863 279.513 151.456 278.907 152.203 278.48C152.963 278.053 153.809 277.84 154.743 277.84C155.676 277.84 156.516 278.053 157.263 278.48C158.009 278.907 158.596 279.513 159.023 280.3C159.463 281.073 159.683 281.987 159.683 283.04C159.683 284.093 159.463 285.013 159.023 285.8C158.583 286.573 157.983 287.173 157.223 287.6C156.476 288.027 155.636 288.24 154.703 288.24ZM154.703 286.8C155.276 286.8 155.809 286.66 156.303 286.38C156.796 286.1 157.196 285.68 157.503 285.12C157.809 284.56 157.963 283.867 157.963 283.04C157.963 282.213 157.809 281.52 157.503 280.96C157.209 280.4 156.816 279.98 156.323 279.7C155.829 279.42 155.303 279.28 154.743 279.28C154.169 279.28 153.636 279.42 153.143 279.7C152.649 279.98 152.249 280.4 151.943 280.96C151.636 281.52 151.483 282.213 151.483 283.04C151.483 283.867 151.636 284.56 151.943 285.12C152.249 285.68 152.643 286.1 153.123 286.38C153.616 286.66 154.143 286.8 154.703 286.8ZM162.019 288V278.08H163.539L163.639 279.86C163.959 279.233 164.419 278.74 165.019 278.38C165.619 278.02 166.299 277.84 167.059 277.84C168.232 277.84 169.165 278.2 169.859 278.92C170.565 279.627 170.919 280.72 170.919 282.2V288H169.239V282.38C169.239 280.313 168.385 279.28 166.679 279.28C165.825 279.28 165.112 279.593 164.539 280.22C163.979 280.833 163.699 281.713 163.699 282.86V288H162.019ZM172.124 290.38L173.284 285.96H175.024L173.284 290.38H172.124ZM185.612 288.24C184.785 288.24 184.098 288.1 183.552 287.82C183.005 287.54 182.598 287.167 182.332 286.7C182.065 286.233 181.932 285.727 181.932 285.18C181.932 284.167 182.318 283.387 183.092 282.84C183.865 282.293 184.918 282.02 186.252 282.02H188.932V281.9C188.932 281.033 188.705 280.38 188.252 279.94C187.798 279.487 187.192 279.26 186.432 279.26C185.778 279.26 185.212 279.427 184.732 279.76C184.265 280.08 183.972 280.553 183.852 281.18H182.132C182.198 280.46 182.438 279.853 182.852 279.36C183.278 278.867 183.805 278.493 184.432 278.24C185.058 277.973 185.725 277.84 186.432 277.84C187.818 277.84 188.858 278.213 189.552 278.96C190.258 279.693 190.612 280.673 190.612 281.9V288H189.112L189.012 286.22C188.732 286.78 188.318 287.26 187.772 287.66C187.238 288.047 186.518 288.24 185.612 288.24ZM185.872 286.82C186.512 286.82 187.058 286.653 187.512 286.32C187.978 285.987 188.332 285.553 188.572 285.02C188.812 284.487 188.932 283.927 188.932 283.34V283.32H186.392C185.405 283.32 184.705 283.493 184.292 283.84C183.892 284.173 183.692 284.593 183.692 285.1C183.692 285.62 183.878 286.04 184.252 286.36C184.638 286.667 185.178 286.82 185.872 286.82ZM193.132 288V278.08H194.652L194.752 279.86C195.072 279.233 195.532 278.74 196.132 278.38C196.732 278.02 197.412 277.84 198.172 277.84C199.345 277.84 200.279 278.2 200.972 278.92C201.679 279.627 202.032 280.72 202.032 282.2V288H200.352V282.38C200.352 280.313 199.499 279.28 197.792 279.28C196.939 279.28 196.225 279.593 195.652 280.22C195.092 280.833 194.812 281.713 194.812 282.86V288H193.132ZM209.077 288.24C208.091 288.24 207.224 288.013 206.477 287.56C205.744 287.107 205.171 286.487 204.757 285.7C204.357 284.913 204.157 284.02 204.157 283.02C204.157 282.02 204.364 281.133 204.777 280.36C205.191 279.573 205.764 278.96 206.497 278.52C207.231 278.067 208.097 277.84 209.097 277.84C209.911 277.84 210.631 278.007 211.257 278.34C211.884 278.673 212.371 279.14 212.717 279.74V273.6H214.397V288H212.877L212.717 286.36C212.397 286.84 211.937 287.273 211.337 287.66C210.737 288.047 209.984 288.24 209.077 288.24ZM209.257 286.78C209.924 286.78 210.511 286.627 211.017 286.32C211.537 286 211.937 285.56 212.217 285C212.511 284.44 212.657 283.787 212.657 283.04C212.657 282.293 212.511 281.64 212.217 281.08C211.937 280.52 211.537 280.087 211.017 279.78C210.511 279.46 209.924 279.3 209.257 279.3C208.604 279.3 208.017 279.46 207.497 279.78C206.991 280.087 206.591 280.52 206.297 281.08C206.017 281.64 205.877 282.293 205.877 283.04C205.877 283.787 206.017 284.44 206.297 285C206.591 285.56 206.991 286 207.497 286.32C208.017 286.627 208.604 286.78 209.257 286.78ZM222.429 288V273.6H224.109V288H222.429ZM231.322 288.24C230.376 288.24 229.536 288.027 228.802 287.6C228.069 287.16 227.489 286.553 227.062 285.78C226.649 285.007 226.442 284.093 226.442 283.04C226.442 282 226.649 281.093 227.062 280.32C227.476 279.533 228.049 278.927 228.782 278.5C229.529 278.06 230.389 277.84 231.362 277.84C232.322 277.84 233.149 278.06 233.842 278.5C234.549 278.927 235.089 279.493 235.462 280.2C235.836 280.907 236.022 281.667 236.022 282.48C236.022 282.627 236.016 282.773 236.002 282.92C236.002 283.067 236.002 283.233 236.002 283.42H228.102C228.142 284.18 228.316 284.813 228.622 285.32C228.942 285.813 229.336 286.187 229.802 286.44C230.282 286.693 230.789 286.82 231.322 286.82C232.016 286.82 232.596 286.66 233.062 286.34C233.529 286.02 233.869 285.587 234.082 285.04H235.742C235.476 285.96 234.962 286.727 234.202 287.34C233.456 287.94 232.496 288.24 231.322 288.24ZM231.322 279.26C230.522 279.26 229.809 279.507 229.182 280C228.569 280.48 228.216 281.187 228.122 282.12H234.362C234.322 281.227 234.016 280.527 233.442 280.02C232.869 279.513 232.162 279.26 231.322 279.26ZM241.837 288C240.93 288 240.217 287.78 239.697 287.34C239.177 286.9 238.917 286.107 238.917 284.96V279.5H237.197V278.08H238.917L239.137 275.7H240.597V278.08H243.517V279.5H240.597V284.96C240.597 285.587 240.724 286.013 240.977 286.24C241.23 286.453 241.677 286.56 242.317 286.56H243.357V288H241.837ZM255.464 288.24C254.531 288.24 253.691 288.027 252.944 287.6C252.198 287.173 251.604 286.573 251.164 285.8C250.738 285.013 250.524 284.093 250.524 283.04C250.524 281.987 250.744 281.073 251.184 280.3C251.624 279.513 252.218 278.907 252.964 278.48C253.724 278.053 254.571 277.84 255.504 277.84C256.438 277.84 257.278 278.053 258.024 278.48C258.771 278.907 259.358 279.513 259.784 280.3C260.224 281.073 260.444 281.987 260.444 283.04C260.444 284.093 260.224 285.013 259.784 285.8C259.344 286.573 258.744 287.173 257.984 287.6C257.238 288.027 256.398 288.24 255.464 288.24ZM255.464 286.8C256.038 286.8 256.571 286.66 257.064 286.38C257.558 286.1 257.958 285.68 258.264 285.12C258.571 284.56 258.724 283.867 258.724 283.04C258.724 282.213 258.571 281.52 258.264 280.96C257.971 280.4 257.578 279.98 257.084 279.7C256.591 279.42 256.064 279.28 255.504 279.28C254.931 279.28 254.398 279.42 253.904 279.7C253.411 279.98 253.011 280.4 252.704 280.96C252.398 281.52 252.244 282.213 252.244 283.04C252.244 283.867 252.398 284.56 252.704 285.12C253.011 285.68 253.404 286.1 253.884 286.38C254.378 286.66 254.904 286.8 255.464 286.8ZM266.4 288.24C265.227 288.24 264.294 287.887 263.6 287.18C262.907 286.46 262.56 285.36 262.56 283.88V278.08H264.24V283.7C264.24 285.767 265.087 286.8 266.78 286.8C267.647 286.8 268.36 286.493 268.92 285.88C269.494 285.253 269.78 284.367 269.78 283.22V278.08H271.46V288H269.94L269.82 286.22C269.514 286.847 269.054 287.34 268.44 287.7C267.84 288.06 267.16 288.24 266.4 288.24ZM274.226 288V278.08H275.746L275.886 279.98C276.192 279.327 276.659 278.807 277.286 278.42C277.912 278.033 278.686 277.84 279.606 277.84V279.6H279.146C278.559 279.6 278.019 279.707 277.526 279.92C277.032 280.12 276.639 280.467 276.346 280.96C276.052 281.453 275.906 282.133 275.906 283V288H274.226ZM286.004 288L291.164 274H292.944L298.084 288H296.304L295.024 284.4H289.064L287.764 288H286.004ZM289.564 283.04H294.524L292.044 276.12L289.564 283.04ZM300.166 288V274H301.846V288H300.166ZM314.567 288.24C313.62 288.24 312.767 288.027 312.007 287.6C311.26 287.16 310.667 286.553 310.227 285.78C309.8 284.993 309.587 284.08 309.587 283.04C309.587 282 309.8 281.093 310.227 280.32C310.667 279.533 311.26 278.927 312.007 278.5C312.767 278.06 313.62 277.84 314.567 277.84C315.74 277.84 316.727 278.147 317.527 278.76C318.34 279.373 318.854 280.193 319.067 281.22H317.347C317.214 280.607 316.887 280.133 316.367 279.8C315.847 279.453 315.24 279.28 314.547 279.28C313.987 279.28 313.46 279.42 312.967 279.7C312.474 279.98 312.074 280.4 311.767 280.96C311.46 281.52 311.307 282.213 311.307 283.04C311.307 283.867 311.46 284.56 311.767 285.12C312.074 285.68 312.474 286.107 312.967 286.4C313.46 286.68 313.987 286.82 314.547 286.82C315.24 286.82 315.847 286.653 316.367 286.32C316.887 285.973 317.214 285.487 317.347 284.86H319.067C318.867 285.86 318.36 286.673 317.547 287.3C316.734 287.927 315.74 288.24 314.567 288.24ZM321.413 288V278.08H322.933L323.073 279.98C323.38 279.327 323.847 278.807 324.473 278.42C325.1 278.033 325.873 277.84 326.793 277.84V279.6H326.333C325.747 279.6 325.207 279.707 324.713 279.92C324.22 280.12 323.827 280.467 323.533 280.96C323.24 281.453 323.093 282.133 323.093 283V288H321.413ZM332.768 288.24C331.821 288.24 330.981 288.027 330.248 287.6C329.514 287.16 328.934 286.553 328.508 285.78C328.094 285.007 327.888 284.093 327.888 283.04C327.888 282 328.094 281.093 328.508 280.32C328.921 279.533 329.494 278.927 330.228 278.5C330.974 278.06 331.834 277.84 332.808 277.84C333.768 277.84 334.594 278.06 335.288 278.5C335.994 278.927 336.534 279.493 336.908 280.2C337.281 280.907 337.468 281.667 337.468 282.48C337.468 282.627 337.461 282.773 337.448 282.92C337.448 283.067 337.448 283.233 337.448 283.42H329.548C329.588 284.18 329.761 284.813 330.068 285.32C330.388 285.813 330.781 286.187 331.248 286.44C331.728 286.693 332.234 286.82 332.768 286.82C333.461 286.82 334.041 286.66 334.508 286.34C334.974 286.02 335.314 285.587 335.528 285.04H337.188C336.921 285.96 336.408 286.727 335.648 287.34C334.901 287.94 333.941 288.24 332.768 288.24ZM332.768 279.26C331.968 279.26 331.254 279.507 330.628 280C330.014 280.48 329.661 281.187 329.568 282.12H335.808C335.768 281.227 335.461 280.527 334.888 280.02C334.314 279.513 333.608 279.26 332.768 279.26ZM342.994 288.24C342.168 288.24 341.481 288.1 340.934 287.82C340.388 287.54 339.981 287.167 339.714 286.7C339.448 286.233 339.314 285.727 339.314 285.18C339.314 284.167 339.701 283.387 340.474 282.84C341.248 282.293 342.301 282.02 343.634 282.02H346.314V281.9C346.314 281.033 346.088 280.38 345.634 279.94C345.181 279.487 344.574 279.26 343.814 279.26C343.161 279.26 342.594 279.427 342.114 279.76C341.648 280.08 341.354 280.553 341.234 281.18H339.514C339.581 280.46 339.821 279.853 340.234 279.36C340.661 278.867 341.188 278.493 341.814 278.24C342.441 277.973 343.108 277.84 343.814 277.84C345.201 277.84 346.241 278.213 346.934 278.96C347.641 279.693 347.994 280.673 347.994 281.9V288H346.494L346.394 286.22C346.114 286.78 345.701 287.26 345.154 287.66C344.621 288.047 343.901 288.24 342.994 288.24ZM343.254 286.82C343.894 286.82 344.441 286.653 344.894 286.32C345.361 285.987 345.714 285.553 345.954 285.02C346.194 284.487 346.314 283.927 346.314 283.34V283.32H343.774C342.788 283.32 342.088 283.493 341.674 283.84C341.274 284.173 341.074 284.593 341.074 285.1C341.074 285.62 341.261 286.04 341.634 286.36C342.021 286.667 342.561 286.82 343.254 286.82ZM354.161 288C353.255 288 352.541 287.78 352.021 287.34C351.501 286.9 351.241 286.107 351.241 284.96V279.5H349.521V278.08H351.241L351.461 275.7H352.921V278.08H355.841V279.5H352.921V284.96C352.921 285.587 353.048 286.013 353.301 286.24C353.555 286.453 354.001 286.56 354.641 286.56H355.681V288H354.161ZM362.162 288.24C361.216 288.24 360.376 288.027 359.642 287.6C358.909 287.16 358.329 286.553 357.902 285.78C357.489 285.007 357.282 284.093 357.282 283.04C357.282 282 357.489 281.093 357.902 280.32C358.316 279.533 358.889 278.927 359.622 278.5C360.369 278.06 361.229 277.84 362.202 277.84C363.162 277.84 363.989 278.06 364.682 278.5C365.389 278.927 365.929 279.493 366.302 280.2C366.676 280.907 366.862 281.667 366.862 282.48C366.862 282.627 366.856 282.773 366.842 282.92C366.842 283.067 366.842 283.233 366.842 283.42H358.942C358.982 284.18 359.156 284.813 359.462 285.32C359.782 285.813 360.176 286.187 360.642 286.44C361.122 286.693 361.629 286.82 362.162 286.82C362.856 286.82 363.436 286.66 363.902 286.34C364.369 286.02 364.709 285.587 364.922 285.04H366.582C366.316 285.96 365.802 286.727 365.042 287.34C364.296 287.94 363.336 288.24 362.162 288.24ZM362.162 279.26C361.362 279.26 360.649 279.507 360.022 280C359.409 280.48 359.056 281.187 358.962 282.12H365.202C365.162 281.227 364.856 280.527 364.282 280.02C363.709 279.513 363.002 279.26 362.162 279.26ZM377.682 288.24C376.855 288.24 376.169 288.1 375.622 287.82C375.075 287.54 374.669 287.167 374.402 286.7C374.135 286.233 374.002 285.727 374.002 285.18C374.002 284.167 374.389 283.387 375.162 282.84C375.935 282.293 376.989 282.02 378.322 282.02H381.002V281.9C381.002 281.033 380.775 280.38 380.322 279.94C379.869 279.487 379.262 279.26 378.502 279.26C377.849 279.26 377.282 279.427 376.802 279.76C376.335 280.08 376.042 280.553 375.922 281.18H374.202C374.269 280.46 374.509 279.853 374.922 279.36C375.349 278.867 375.875 278.493 376.502 278.24C377.129 277.973 377.795 277.84 378.502 277.84C379.889 277.84 380.929 278.213 381.622 278.96C382.329 279.693 382.682 280.673 382.682 281.9V288H381.182L381.082 286.22C380.802 286.78 380.389 287.26 379.842 287.66C379.309 288.047 378.589 288.24 377.682 288.24ZM377.942 286.82C378.582 286.82 379.129 286.653 379.582 286.32C380.049 285.987 380.402 285.553 380.642 285.02C380.882 284.487 381.002 283.927 381.002 283.34V283.32H378.462C377.475 283.32 376.775 283.493 376.362 283.84C375.962 284.173 375.762 284.593 375.762 285.1C375.762 285.62 375.949 286.04 376.322 286.36C376.709 286.667 377.249 286.82 377.942 286.82ZM390.495 292.4V278.08H392.015L392.175 279.72C392.495 279.24 392.949 278.807 393.535 278.42C394.135 278.033 394.895 277.84 395.815 277.84C396.802 277.84 397.662 278.067 398.395 278.52C399.129 278.973 399.695 279.593 400.095 280.38C400.509 281.167 400.715 282.06 400.715 283.06C400.715 284.06 400.509 284.953 400.095 285.74C399.695 286.513 399.122 287.127 398.375 287.58C397.642 288.02 396.782 288.24 395.795 288.24C394.982 288.24 394.255 288.073 393.615 287.74C392.989 287.407 392.509 286.94 392.175 286.34V292.4H390.495ZM395.615 286.78C396.282 286.78 396.869 286.627 397.375 286.32C397.882 286 398.282 285.56 398.575 285C398.869 284.44 399.015 283.787 399.015 283.04C399.015 282.293 398.869 281.64 398.575 281.08C398.282 280.52 397.882 280.087 397.375 279.78C396.869 279.46 396.282 279.3 395.615 279.3C394.949 279.3 394.362 279.46 393.855 279.78C393.349 280.087 392.949 280.52 392.655 281.08C392.362 281.64 392.215 282.293 392.215 283.04C392.215 283.787 392.362 284.44 392.655 285C392.949 285.56 393.349 286 393.855 286.32C394.362 286.627 394.949 286.78 395.615 286.78ZM407.514 288.24C406.567 288.24 405.727 288.027 404.994 287.6C404.26 287.16 403.68 286.553 403.254 285.78C402.84 285.007 402.634 284.093 402.634 283.04C402.634 282 402.84 281.093 403.254 280.32C403.667 279.533 404.24 278.927 404.974 278.5C405.72 278.06 406.58 277.84 407.554 277.84C408.514 277.84 409.34 278.06 410.034 278.5C410.74 278.927 411.28 279.493 411.654 280.2C412.027 280.907 412.214 281.667 412.214 282.48C412.214 282.627 412.207 282.773 412.194 282.92C412.194 283.067 412.194 283.233 412.194 283.42H404.294C404.334 284.18 404.507 284.813 404.814 285.32C405.134 285.813 405.527 286.187 405.994 286.44C406.474 286.693 406.98 286.82 407.514 286.82C408.207 286.82 408.787 286.66 409.254 286.34C409.72 286.02 410.06 285.587 410.274 285.04H411.934C411.667 285.96 411.154 286.727 410.394 287.34C409.647 287.94 408.687 288.24 407.514 288.24ZM407.514 279.26C406.714 279.26 406 279.507 405.374 280C404.76 280.48 404.407 281.187 404.314 282.12H410.554C410.514 281.227 410.207 280.527 409.634 280.02C409.06 279.513 408.354 279.26 407.514 279.26ZM414.441 288V278.08H415.961L416.101 279.98C416.407 279.327 416.874 278.807 417.501 278.42C418.127 278.033 418.901 277.84 419.821 277.84V279.6H419.361C418.774 279.6 418.234 279.707 417.741 279.92C417.247 280.12 416.854 280.467 416.561 280.96C416.267 281.453 416.121 282.133 416.121 283V288H414.441ZM425.506 288.24C424.32 288.24 423.333 287.94 422.546 287.34C421.76 286.74 421.3 285.927 421.166 284.9H422.886C422.993 285.42 423.266 285.873 423.706 286.26C424.16 286.633 424.766 286.82 425.526 286.82C426.233 286.82 426.753 286.673 427.086 286.38C427.42 286.073 427.586 285.713 427.586 285.3C427.586 284.7 427.366 284.3 426.926 284.1C426.5 283.9 425.893 283.72 425.106 283.56C424.573 283.453 424.04 283.3 423.506 283.1C422.973 282.9 422.526 282.62 422.166 282.26C421.806 281.887 421.626 281.4 421.626 280.8C421.626 279.933 421.946 279.227 422.586 278.68C423.24 278.12 424.12 277.84 425.226 277.84C426.28 277.84 427.14 278.107 427.806 278.64C428.486 279.16 428.88 279.907 428.986 280.88H427.326C427.26 280.373 427.04 279.98 426.666 279.7C426.306 279.407 425.82 279.26 425.206 279.26C424.606 279.26 424.14 279.387 423.806 279.64C423.486 279.893 423.326 280.227 423.326 280.64C423.326 281.04 423.533 281.353 423.946 281.58C424.373 281.807 424.946 282 425.666 282.16C426.28 282.293 426.86 282.46 427.406 282.66C427.966 282.847 428.42 283.133 428.766 283.52C429.126 283.893 429.306 284.44 429.306 285.16C429.32 286.053 428.98 286.793 428.286 287.38C427.606 287.953 426.68 288.24 425.506 288.24ZM436.226 288.24C435.293 288.24 434.453 288.027 433.706 287.6C432.96 287.173 432.366 286.573 431.926 285.8C431.5 285.013 431.286 284.093 431.286 283.04C431.286 281.987 431.506 281.073 431.946 280.3C432.386 279.513 432.98 278.907 433.726 278.48C434.486 278.053 435.333 277.84 436.266 277.84C437.2 277.84 438.04 278.053 438.786 278.48C439.533 278.907 440.12 279.513 440.546 280.3C440.986 281.073 441.206 281.987 441.206 283.04C441.206 284.093 440.986 285.013 440.546 285.8C440.106 286.573 439.506 287.173 438.746 287.6C438 288.027 437.16 288.24 436.226 288.24ZM436.226 286.8C436.8 286.8 437.333 286.66 437.826 286.38C438.32 286.1 438.72 285.68 439.026 285.12C439.333 284.56 439.486 283.867 439.486 283.04C439.486 282.213 439.333 281.52 439.026 280.96C438.733 280.4 438.34 279.98 437.846 279.7C437.353 279.42 436.826 279.28 436.266 279.28C435.693 279.28 435.16 279.42 434.666 279.7C434.173 279.98 433.773 280.4 433.466 280.96C433.16 281.52 433.006 282.213 433.006 283.04C433.006 283.867 433.16 284.56 433.466 285.12C433.773 285.68 434.166 286.1 434.646 286.38C435.14 286.66 435.666 286.8 436.226 286.8ZM443.542 288V278.08H445.062L445.162 279.86C445.482 279.233 445.942 278.74 446.542 278.38C447.142 278.02 447.822 277.84 448.582 277.84C449.755 277.84 450.689 278.2 451.382 278.92C452.089 279.627 452.442 280.72 452.442 282.2V288H450.762V282.38C450.762 280.313 449.909 279.28 448.202 279.28C447.349 279.28 446.635 279.593 446.062 280.22C445.502 280.833 445.222 281.713 445.222 282.86V288H443.542ZM458.287 288.24C457.461 288.24 456.774 288.1 456.227 287.82C455.681 287.54 455.274 287.167 455.007 286.7C454.741 286.233 454.607 285.727 454.607 285.18C454.607 284.167 454.994 283.387 455.767 282.84C456.541 282.293 457.594 282.02 458.927 282.02H461.607V281.9C461.607 281.033 461.381 280.38 460.927 279.94C460.474 279.487 459.867 279.26 459.107 279.26C458.454 279.26 457.887 279.427 457.407 279.76C456.941 280.08 456.647 280.553 456.527 281.18H454.807C454.874 280.46 455.114 279.853 455.527 279.36C455.954 278.867 456.481 278.493 457.107 278.24C457.734 277.973 458.401 277.84 459.107 277.84C460.494 277.84 461.534 278.213 462.227 278.96C462.934 279.693 463.287 280.673 463.287 281.9V288H461.787L461.687 286.22C461.407 286.78 460.994 287.26 460.447 287.66C459.914 288.047 459.194 288.24 458.287 288.24ZM458.547 286.82C459.187 286.82 459.734 286.653 460.187 286.32C460.654 285.987 461.007 285.553 461.247 285.02C461.487 284.487 461.607 283.927 461.607 283.34V283.32H459.067C458.081 283.32 457.381 283.493 456.967 283.84C456.567 284.173 456.367 284.593 456.367 285.1C456.367 285.62 456.554 286.04 456.927 286.36C457.314 286.667 457.854 286.82 458.547 286.82ZM465.808 288V273.6H467.488V288H465.808ZM471.261 275.88C470.928 275.88 470.648 275.773 470.421 275.56C470.208 275.333 470.101 275.053 470.101 274.72C470.101 274.4 470.208 274.133 470.421 273.92C470.648 273.707 470.928 273.6 471.261 273.6C471.581 273.6 471.855 273.707 472.081 273.92C472.308 274.133 472.421 274.4 472.421 274.72C472.421 275.053 472.308 275.333 472.081 275.56C471.855 275.773 471.581 275.88 471.261 275.88ZM470.421 288V278.08H472.101V288H470.421ZM478.826 288.24C477.64 288.24 476.653 287.94 475.866 287.34C475.08 286.74 474.62 285.927 474.486 284.9H476.206C476.313 285.42 476.586 285.873 477.026 286.26C477.48 286.633 478.086 286.82 478.846 286.82C479.553 286.82 480.073 286.673 480.406 286.38C480.74 286.073 480.906 285.713 480.906 285.3C480.906 284.7 480.686 284.3 480.246 284.1C479.82 283.9 479.213 283.72 478.426 283.56C477.893 283.453 477.36 283.3 476.826 283.1C476.293 282.9 475.846 282.62 475.486 282.26C475.126 281.887 474.946 281.4 474.946 280.8C474.946 279.933 475.266 279.227 475.906 278.68C476.56 278.12 477.44 277.84 478.546 277.84C479.6 277.84 480.46 278.107 481.126 278.64C481.806 279.16 482.2 279.907 482.306 280.88H480.646C480.58 280.373 480.36 279.98 479.986 279.7C479.626 279.407 479.14 279.26 478.526 279.26C477.926 279.26 477.46 279.387 477.126 279.64C476.806 279.893 476.646 280.227 476.646 280.64C476.646 281.04 476.853 281.353 477.266 281.58C477.693 281.807 478.266 282 478.986 282.16C479.6 282.293 480.18 282.46 480.726 282.66C481.286 282.847 481.74 283.133 482.086 283.52C482.446 283.893 482.626 284.44 482.626 285.16C482.64 286.053 482.3 286.793 481.606 287.38C480.926 287.953 480 288.24 478.826 288.24ZM489.486 288.24C488.54 288.24 487.7 288.027 486.966 287.6C486.233 287.16 485.653 286.553 485.226 285.78C484.813 285.007 484.606 284.093 484.606 283.04C484.606 282 484.813 281.093 485.226 280.32C485.64 279.533 486.213 278.927 486.946 278.5C487.693 278.06 488.553 277.84 489.526 277.84C490.486 277.84 491.313 278.06 492.006 278.5C492.713 278.927 493.253 279.493 493.626 280.2C494 280.907 494.186 281.667 494.186 282.48C494.186 282.627 494.18 282.773 494.166 282.92C494.166 283.067 494.166 283.233 494.166 283.42H486.266C486.306 284.18 486.48 284.813 486.786 285.32C487.106 285.813 487.5 286.187 487.966 286.44C488.446 286.693 488.953 286.82 489.486 286.82C490.18 286.82 490.76 286.66 491.226 286.34C491.693 286.02 492.033 285.587 492.246 285.04H493.906C493.64 285.96 493.126 286.727 492.366 287.34C491.62 287.94 490.66 288.24 489.486 288.24ZM489.486 279.26C488.686 279.26 487.973 279.507 487.346 280C486.733 280.48 486.38 281.187 486.286 282.12H492.526C492.486 281.227 492.18 280.527 491.606 280.02C491.033 279.513 490.326 279.26 489.486 279.26ZM500.913 288.24C499.927 288.24 499.06 288.013 498.313 287.56C497.58 287.107 497.007 286.487 496.593 285.7C496.193 284.913 495.993 284.02 495.993 283.02C495.993 282.02 496.2 281.133 496.613 280.36C497.027 279.573 497.6 278.96 498.333 278.52C499.067 278.067 499.933 277.84 500.933 277.84C501.747 277.84 502.467 278.007 503.093 278.34C503.72 278.673 504.207 279.14 504.553 279.74V273.6H506.233V288H504.713L504.553 286.36C504.233 286.84 503.773 287.273 503.173 287.66C502.573 288.047 501.82 288.24 500.913 288.24ZM501.093 286.78C501.76 286.78 502.347 286.627 502.853 286.32C503.373 286 503.773 285.56 504.053 285C504.347 284.44 504.493 283.787 504.493 283.04C504.493 282.293 504.347 281.64 504.053 281.08C503.773 280.52 503.373 280.087 502.853 279.78C502.347 279.46 501.76 279.3 501.093 279.3C500.44 279.3 499.853 279.46 499.333 279.78C498.827 280.087 498.427 280.52 498.133 281.08C497.853 281.64 497.713 282.293 497.713 283.04C497.713 283.787 497.853 284.44 498.133 285C498.427 285.56 498.827 286 499.333 286.32C499.853 286.627 500.44 286.78 501.093 286.78ZM518.825 288.24C517.878 288.24 517.025 288.027 516.265 287.6C515.518 287.16 514.925 286.553 514.485 285.78C514.058 284.993 513.845 284.08 513.845 283.04C513.845 282 514.058 281.093 514.485 280.32C514.925 279.533 515.518 278.927 516.265 278.5C517.025 278.06 517.878 277.84 518.825 277.84C519.998 277.84 520.985 278.147 521.785 278.76C522.598 279.373 523.111 280.193 523.325 281.22H521.605C521.471 280.607 521.145 280.133 520.625 279.8C520.105 279.453 519.498 279.28 518.805 279.28C518.245 279.28 517.718 279.42 517.225 279.7C516.731 279.98 516.331 280.4 516.025 280.96C515.718 281.52 515.565 282.213 515.565 283.04C515.565 283.867 515.718 284.56 516.025 285.12C516.331 285.68 516.731 286.107 517.225 286.4C517.718 286.68 518.245 286.82 518.805 286.82C519.498 286.82 520.105 286.653 520.625 286.32C521.145 285.973 521.471 285.487 521.605 284.86H523.325C523.125 285.86 522.618 286.673 521.805 287.3C520.991 287.927 519.998 288.24 518.825 288.24ZM530.191 288.24C529.258 288.24 528.418 288.027 527.671 287.6C526.924 287.173 526.331 286.573 525.891 285.8C525.464 285.013 525.251 284.093 525.251 283.04C525.251 281.987 525.471 281.073 525.911 280.3C526.351 279.513 526.944 278.907 527.691 278.48C528.451 278.053 529.298 277.84 530.231 277.84C531.164 277.84 532.004 278.053 532.751 278.48C533.498 278.907 534.084 279.513 534.511 280.3C534.951 281.073 535.171 281.987 535.171 283.04C535.171 284.093 534.951 285.013 534.511 285.8C534.071 286.573 533.471 287.173 532.711 287.6C531.964 288.027 531.124 288.24 530.191 288.24ZM530.191 286.8C530.764 286.8 531.298 286.66 531.791 286.38C532.284 286.1 532.684 285.68 532.991 285.12C533.298 284.56 533.451 283.867 533.451 283.04C533.451 282.213 533.298 281.52 532.991 280.96C532.698 280.4 532.304 279.98 531.811 279.7C531.318 279.42 530.791 279.28 530.231 279.28C529.658 279.28 529.124 279.42 528.631 279.7C528.138 279.98 527.738 280.4 527.431 280.96C527.124 281.52 526.971 282.213 526.971 283.04C526.971 283.867 527.124 284.56 527.431 285.12C527.738 285.68 528.131 286.1 528.611 286.38C529.104 286.66 529.631 286.8 530.191 286.8ZM541.127 288.24C539.954 288.24 539.02 287.887 538.327 287.18C537.634 286.46 537.287 285.36 537.287 283.88V278.08H538.967V283.7C538.967 285.767 539.814 286.8 541.507 286.8C542.374 286.8 543.087 286.493 543.647 285.88C544.22 285.253 544.507 284.367 544.507 283.22V278.08H546.187V288H544.667L544.547 286.22C544.24 286.847 543.78 287.34 543.167 287.7C542.567 288.06 541.887 288.24 541.127 288.24ZM548.952 288V278.08H550.472L550.612 279.98C550.919 279.327 551.386 278.807 552.012 278.42C552.639 278.033 553.412 277.84 554.332 277.84V279.6H553.872C553.286 279.6 552.746 279.707 552.252 279.92C551.759 280.12 551.366 280.467 551.072 280.96C550.779 281.453 550.632 282.133 550.632 283V288H548.952ZM560.018 288.24C558.831 288.24 557.845 287.94 557.058 287.34C556.271 286.74 555.811 285.927 555.678 284.9H557.398C557.505 285.42 557.778 285.873 558.218 286.26C558.671 286.633 559.278 286.82 560.038 286.82C560.745 286.82 561.265 286.673 561.598 286.38C561.931 286.073 562.098 285.713 562.098 285.3C562.098 284.7 561.878 284.3 561.438 284.1C561.011 283.9 560.405 283.72 559.618 283.56C559.085 283.453 558.551 283.3 558.018 283.1C557.485 282.9 557.038 282.62 556.678 282.26C556.318 281.887 556.138 281.4 556.138 280.8C556.138 279.933 556.458 279.227 557.098 278.68C557.751 278.12 558.631 277.84 559.738 277.84C560.791 277.84 561.651 278.107 562.318 278.64C562.998 279.16 563.391 279.907 563.498 280.88H561.838C561.771 280.373 561.551 279.98 561.178 279.7C560.818 279.407 560.331 279.26 559.718 279.26C559.118 279.26 558.651 279.387 558.318 279.64C557.998 279.893 557.838 280.227 557.838 280.64C557.838 281.04 558.045 281.353 558.458 281.58C558.885 281.807 559.458 282 560.178 282.16C560.791 282.293 561.371 282.46 561.918 282.66C562.478 282.847 562.931 283.133 563.278 283.52C563.638 283.893 563.818 284.44 563.818 285.16C563.831 286.053 563.491 286.793 562.798 287.38C562.118 287.953 561.191 288.24 560.018 288.24ZM570.678 288.24C569.731 288.24 568.891 288.027 568.158 287.6C567.425 287.16 566.845 286.553 566.418 285.78C566.005 285.007 565.798 284.093 565.798 283.04C565.798 282 566.005 281.093 566.418 280.32C566.831 279.533 567.405 278.927 568.138 278.5C568.885 278.06 569.745 277.84 570.718 277.84C571.678 277.84 572.505 278.06 573.198 278.5C573.905 278.927 574.445 279.493 574.818 280.2C575.191 280.907 575.378 281.667 575.378 282.48C575.378 282.627 575.371 282.773 575.358 282.92C575.358 283.067 575.358 283.233 575.358 283.42H567.458C567.498 284.18 567.671 284.813 567.978 285.32C568.298 285.813 568.691 286.187 569.158 286.44C569.638 286.693 570.145 286.82 570.678 286.82C571.371 286.82 571.951 286.66 572.418 286.34C572.885 286.02 573.225 285.587 573.438 285.04H575.098C574.831 285.96 574.318 286.727 573.558 287.34C572.811 287.94 571.851 288.24 570.678 288.24ZM570.678 279.26C569.878 279.26 569.165 279.507 568.538 280C567.925 280.48 567.571 281.187 567.478 282.12H573.718C573.678 281.227 573.371 280.527 572.798 280.02C572.225 279.513 571.518 279.26 570.678 279.26ZM583.438 288V279.5H581.938V278.08H583.438V276.36C583.438 275.4 583.678 274.7 584.158 274.26C584.638 273.82 585.338 273.6 586.258 273.6H587.258V275.04H586.518C586.011 275.04 585.651 275.147 585.438 275.36C585.224 275.56 585.118 275.907 585.118 276.4V278.08H587.558V279.5H585.118V288H583.438ZM593.687 288.24C592.754 288.24 591.914 288.027 591.167 287.6C590.42 287.173 589.827 286.573 589.387 285.8C588.96 285.013 588.747 284.093 588.747 283.04C588.747 281.987 588.967 281.073 589.407 280.3C589.847 279.513 590.44 278.907 591.187 278.48C591.947 278.053 592.794 277.84 593.727 277.84C594.66 277.84 595.5 278.053 596.247 278.48C596.994 278.907 597.58 279.513 598.007 280.3C598.447 281.073 598.667 281.987 598.667 283.04C598.667 284.093 598.447 285.013 598.007 285.8C597.567 286.573 596.967 287.173 596.207 287.6C595.46 288.027 594.62 288.24 593.687 288.24ZM593.687 286.8C594.26 286.8 594.794 286.66 595.287 286.38C595.78 286.1 596.18 285.68 596.487 285.12C596.794 284.56 596.947 283.867 596.947 283.04C596.947 282.213 596.794 281.52 596.487 280.96C596.194 280.4 595.8 279.98 595.307 279.7C594.814 279.42 594.287 279.28 593.727 279.28C593.154 279.28 592.62 279.42 592.127 279.7C591.634 279.98 591.234 280.4 590.927 280.96C590.62 281.52 590.467 282.213 590.467 283.04C590.467 283.867 590.62 284.56 590.927 285.12C591.234 285.68 591.627 286.1 592.107 286.38C592.6 286.66 593.127 286.8 593.687 286.8ZM601.003 288V278.08H602.523L602.663 279.98C602.97 279.327 603.436 278.807 604.063 278.42C604.69 278.033 605.463 277.84 606.383 277.84V279.6H605.923C605.336 279.6 604.796 279.707 604.303 279.92C603.81 280.12 603.416 280.467 603.123 280.96C602.83 281.453 602.683 282.133 602.683 283V288H601.003ZM222.981 318.4L225.441 313.04H224.861L220.921 304.08H222.741L226.021 311.8L229.501 304.08H231.241L224.741 318.4H222.981ZM236.597 314.24C235.664 314.24 234.824 314.027 234.077 313.6C233.331 313.173 232.737 312.573 232.297 311.8C231.871 311.013 231.657 310.093 231.657 309.04C231.657 307.987 231.877 307.073 232.317 306.3C232.757 305.513 233.351 304.907 234.097 304.48C234.857 304.053 235.704 303.84 236.637 303.84C237.571 303.84 238.411 304.053 239.157 304.48C239.904 304.907 240.491 305.513 240.917 306.3C241.357 307.073 241.577 307.987 241.577 309.04C241.577 310.093 241.357 311.013 240.917 311.8C240.477 312.573 239.877 313.173 239.117 313.6C238.371 314.027 237.531 314.24 236.597 314.24ZM236.597 312.8C237.171 312.8 237.704 312.66 238.197 312.38C238.691 312.1 239.091 311.68 239.397 311.12C239.704 310.56 239.857 309.867 239.857 309.04C239.857 308.213 239.704 307.52 239.397 306.96C239.104 306.4 238.711 305.98 238.217 305.7C237.724 305.42 237.197 305.28 236.637 305.28C236.064 305.28 235.531 305.42 235.037 305.7C234.544 305.98 234.144 306.4 233.837 306.96C233.531 307.52 233.377 308.213 233.377 309.04C233.377 309.867 233.531 310.56 233.837 311.12C234.144 311.68 234.537 312.1 235.017 312.38C235.511 312.66 236.037 312.8 236.597 312.8ZM247.533 314.24C246.36 314.24 245.427 313.887 244.733 313.18C244.04 312.46 243.693 311.36 243.693 309.88V304.08H245.373V309.7C245.373 311.767 246.22 312.8 247.913 312.8C248.78 312.8 249.493 312.493 250.053 311.88C250.627 311.253 250.913 310.367 250.913 309.22V304.08H252.593V314H251.073L250.953 312.22C250.647 312.847 250.187 313.34 249.573 313.7C248.973 314.06 248.293 314.24 247.533 314.24ZM263.951 314.24C263.125 314.24 262.438 314.1 261.891 313.82C261.345 313.54 260.938 313.167 260.671 312.7C260.405 312.233 260.271 311.727 260.271 311.18C260.271 310.167 260.658 309.387 261.431 308.84C262.205 308.293 263.258 308.02 264.591 308.02H267.271V307.9C267.271 307.033 267.045 306.38 266.591 305.94C266.138 305.487 265.531 305.26 264.771 305.26C264.118 305.26 263.551 305.427 263.071 305.76C262.605 306.08 262.311 306.553 262.191 307.18H260.471C260.538 306.46 260.778 305.853 261.191 305.36C261.618 304.867 262.145 304.493 262.771 304.24C263.398 303.973 264.065 303.84 264.771 303.84C266.158 303.84 267.198 304.213 267.891 304.96C268.598 305.693 268.951 306.673 268.951 307.9V314H267.451L267.351 312.22C267.071 312.78 266.658 313.26 266.111 313.66C265.578 314.047 264.858 314.24 263.951 314.24ZM264.211 312.82C264.851 312.82 265.398 312.653 265.851 312.32C266.318 311.987 266.671 311.553 266.911 311.02C267.151 310.487 267.271 309.927 267.271 309.34V309.32H264.731C263.745 309.32 263.045 309.493 262.631 309.84C262.231 310.173 262.031 310.593 262.031 311.1C262.031 311.62 262.218 312.04 262.591 312.36C262.978 312.667 263.518 312.82 264.211 312.82ZM275.092 314.24C273.918 314.24 272.985 313.887 272.292 313.18C271.598 312.46 271.252 311.36 271.252 309.88V304.08H272.932V309.7C272.932 311.767 273.778 312.8 275.472 312.8C276.338 312.8 277.052 312.493 277.612 311.88C278.185 311.253 278.472 310.367 278.472 309.22V304.08H280.152V314H278.632L278.512 312.22C278.205 312.847 277.745 313.34 277.132 313.7C276.532 314.06 275.852 314.24 275.092 314.24ZM286.837 314C285.93 314 285.217 313.78 284.697 313.34C284.177 312.9 283.917 312.107 283.917 310.96V305.5H282.197V304.08H283.917L284.137 301.7H285.597V304.08H288.517V305.5H285.597V310.96C285.597 311.587 285.724 312.013 285.977 312.24C286.23 312.453 286.677 312.56 287.317 312.56H288.357V314H286.837ZM294.898 314.24C293.965 314.24 293.125 314.027 292.378 313.6C291.631 313.173 291.038 312.573 290.598 311.8C290.171 311.013 289.958 310.093 289.958 309.04C289.958 307.987 290.178 307.073 290.618 306.3C291.058 305.513 291.651 304.907 292.398 304.48C293.158 304.053 294.005 303.84 294.938 303.84C295.871 303.84 296.711 304.053 297.458 304.48C298.205 304.907 298.791 305.513 299.218 306.3C299.658 307.073 299.878 307.987 299.878 309.04C299.878 310.093 299.658 311.013 299.218 311.8C298.778 312.573 298.178 313.173 297.418 313.6C296.671 314.027 295.831 314.24 294.898 314.24ZM294.898 312.8C295.471 312.8 296.005 312.66 296.498 312.38C296.991 312.1 297.391 311.68 297.698 311.12C298.005 310.56 298.158 309.867 298.158 309.04C298.158 308.213 298.005 307.52 297.698 306.96C297.405 306.4 297.011 305.98 296.518 305.7C296.025 305.42 295.498 305.28 294.938 305.28C294.365 305.28 293.831 305.42 293.338 305.7C292.845 305.98 292.445 306.4 292.138 306.96C291.831 307.52 291.678 308.213 291.678 309.04C291.678 309.867 291.831 310.56 292.138 311.12C292.445 311.68 292.838 312.1 293.318 312.38C293.811 312.66 294.338 312.8 294.898 312.8ZM302.214 314V304.08H303.734L303.854 305.52C304.174 304.987 304.601 304.573 305.134 304.28C305.667 303.987 306.267 303.84 306.934 303.84C307.721 303.84 308.394 304 308.954 304.32C309.527 304.64 309.967 305.127 310.274 305.78C310.621 305.18 311.094 304.707 311.694 304.36C312.307 304.013 312.967 303.84 313.674 303.84C314.861 303.84 315.807 304.2 316.514 304.92C317.221 305.627 317.574 306.72 317.574 308.2V314H315.914V308.38C315.914 307.353 315.707 306.58 315.294 306.06C314.881 305.54 314.287 305.28 313.514 305.28C312.714 305.28 312.047 305.593 311.514 306.22C310.994 306.833 310.734 307.713 310.734 308.86V314H309.054V308.38C309.054 307.353 308.847 306.58 308.434 306.06C308.021 305.54 307.427 305.28 306.654 305.28C305.867 305.28 305.207 305.593 304.674 306.22C304.154 306.833 303.894 307.713 303.894 308.86V314H302.214ZM323.405 314.24C322.578 314.24 321.891 314.1 321.345 313.82C320.798 313.54 320.391 313.167 320.125 312.7C319.858 312.233 319.725 311.727 319.725 311.18C319.725 310.167 320.111 309.387 320.885 308.84C321.658 308.293 322.711 308.02 324.045 308.02H326.725V307.9C326.725 307.033 326.498 306.38 326.045 305.94C325.591 305.487 324.985 305.26 324.225 305.26C323.571 305.26 323.005 305.427 322.525 305.76C322.058 306.08 321.765 306.553 321.645 307.18H319.925C319.991 306.46 320.231 305.853 320.645 305.36C321.071 304.867 321.598 304.493 322.225 304.24C322.851 303.973 323.518 303.84 324.225 303.84C325.611 303.84 326.651 304.213 327.345 304.96C328.051 305.693 328.405 306.673 328.405 307.9V314H326.905L326.805 312.22C326.525 312.78 326.111 313.26 325.565 313.66C325.031 314.047 324.311 314.24 323.405 314.24ZM323.665 312.82C324.305 312.82 324.851 312.653 325.305 312.32C325.771 311.987 326.125 311.553 326.365 311.02C326.605 310.487 326.725 309.927 326.725 309.34V309.32H324.185C323.198 309.32 322.498 309.493 322.085 309.84C321.685 310.173 321.485 310.593 321.485 311.1C321.485 311.62 321.671 312.04 322.045 312.36C322.431 312.667 322.971 312.82 323.665 312.82ZM334.571 314C333.665 314 332.951 313.78 332.431 313.34C331.911 312.9 331.651 312.107 331.651 310.96V305.5H329.931V304.08H331.651L331.871 301.7H333.331V304.08H336.251V305.5H333.331V310.96C333.331 311.587 333.458 312.013 333.711 312.24C333.965 312.453 334.411 312.56 335.051 312.56H336.091V314H334.571ZM339.406 301.88C339.073 301.88 338.793 301.773 338.566 301.56C338.353 301.333 338.246 301.053 338.246 300.72C338.246 300.4 338.353 300.133 338.566 299.92C338.793 299.707 339.073 299.6 339.406 299.6C339.726 299.6 339.999 299.707 340.226 299.92C340.453 300.133 340.566 300.4 340.566 300.72C340.566 301.053 340.453 301.333 340.226 301.56C339.999 301.773 339.726 301.88 339.406 301.88ZM338.566 314V304.08H340.246V314H338.566ZM347.731 314.24C346.784 314.24 345.931 314.027 345.171 313.6C344.424 313.16 343.831 312.553 343.391 311.78C342.964 310.993 342.751 310.08 342.751 309.04C342.751 308 342.964 307.093 343.391 306.32C343.831 305.533 344.424 304.927 345.171 304.5C345.931 304.06 346.784 303.84 347.731 303.84C348.904 303.84 349.891 304.147 350.691 304.76C351.504 305.373 352.018 306.193 352.231 307.22H350.511C350.378 306.607 350.051 306.133 349.531 305.8C349.011 305.453 348.404 305.28 347.711 305.28C347.151 305.28 346.624 305.42 346.131 305.7C345.638 305.98 345.238 306.4 344.931 306.96C344.624 307.52 344.471 308.213 344.471 309.04C344.471 309.867 344.624 310.56 344.931 311.12C345.238 311.68 345.638 312.107 346.131 312.4C346.624 312.68 347.151 312.82 347.711 312.82C348.404 312.82 349.011 312.653 349.531 312.32C350.051 311.973 350.378 311.487 350.511 310.86H352.231C352.031 311.86 351.524 312.673 350.711 313.3C349.898 313.927 348.904 314.24 347.731 314.24ZM357.877 314.24C357.051 314.24 356.364 314.1 355.817 313.82C355.271 313.54 354.864 313.167 354.597 312.7C354.331 312.233 354.197 311.727 354.197 311.18C354.197 310.167 354.584 309.387 355.357 308.84C356.131 308.293 357.184 308.02 358.517 308.02H361.197V307.9C361.197 307.033 360.971 306.38 360.517 305.94C360.064 305.487 359.457 305.26 358.697 305.26C358.044 305.26 357.477 305.427 356.997 305.76C356.531 306.08 356.237 306.553 356.117 307.18H354.397C354.464 306.46 354.704 305.853 355.117 305.36C355.544 304.867 356.071 304.493 356.697 304.24C357.324 303.973 357.991 303.84 358.697 303.84C360.084 303.84 361.124 304.213 361.817 304.96C362.524 305.693 362.877 306.673 362.877 307.9V314H361.377L361.277 312.22C360.997 312.78 360.584 313.26 360.037 313.66C359.504 314.047 358.784 314.24 357.877 314.24ZM358.137 312.82C358.777 312.82 359.324 312.653 359.777 312.32C360.244 311.987 360.597 311.553 360.837 311.02C361.077 310.487 361.197 309.927 361.197 309.34V309.32H358.657C357.671 309.32 356.971 309.493 356.557 309.84C356.157 310.173 355.957 310.593 355.957 311.1C355.957 311.62 356.144 312.04 356.517 312.36C356.904 312.667 357.444 312.82 358.137 312.82ZM365.398 314V299.6H367.078V314H365.398ZM369.831 314V299.6H371.511V314H369.831ZM375.345 318.4L377.805 313.04H377.225L373.285 304.08H375.105L378.385 311.8L381.865 304.08H383.605L377.105 318.4H375.345ZM384.532 314.1C384.199 314.1 383.919 313.993 383.692 313.78C383.479 313.553 383.372 313.28 383.372 312.96C383.372 312.64 383.479 312.373 383.692 312.16C383.919 311.933 384.199 311.82 384.532 311.82C384.852 311.82 385.119 311.933 385.332 312.16C385.559 312.373 385.672 312.64 385.672 312.96C385.672 313.28 385.559 313.553 385.332 313.78C385.119 313.993 384.852 314.1 384.532 314.1Z" fill="black"/>
<defs>
<clipPath id="clip0_39_2731">
<rect width="281" height="194" fill="white" transform="translate(163)"/>
</clipPath>
</defs>
</svg>
