<svg width="323" height="317" viewBox="0 0 323 317" fill="none" xmlns="http://www.w3.org/2000/svg">
<path d="M160.96 0.125436C193.218 0.125436 225.481 0.138415 257.74 0.116783C269.537 0.10813 280.911 2.12862 291.178 8.12085C311.345 19.8933 322.533 37.4893 322.667 61.0083C322.991 117.387 322.844 173.77 322.844 230.149C322.844 239.953 323.432 249.844 322.339 259.539C319.893 281.228 310.671 299.097 290.491 309.649C281.148 314.534 271.067 316.922 260.54 316.935C195.228 317.004 129.911 317.013 64.5992 316.996C52.8063 316.996 41.3722 315.261 30.8109 309.485C17.8686 302.402 9.3902 291.647 4.31699 277.957C1.40011 270.092 -0.00431136 261.984 9.94127e-06 253.608C0.0389017 192.686 0.0389017 131.764 0.13397 70.8425C0.146934 63.721 -0.0864162 56.4697 1.0933 49.4954C5.41892 23.8954 25.7809 4.66396 51.9248 1.04699C57.3912 0.289843 62.97 0.0735174 68.497 0.0562113C99.3165 -0.0346457 130.14 0.012946 160.96 0.012946V0.129762V0.125436ZM80.3244 160.6C80.3244 161.942 80.3244 162.712 80.3244 163.478C80.3244 183.808 80.4367 204.143 80.2639 224.473C80.1991 232.378 83.2283 237.889 90.0689 242.065C109.675 254.023 129.056 266.354 148.497 278.585C156.064 283.344 163.656 284.482 171.612 279.489C191.861 266.782 212.068 254.006 232.464 241.541C238.869 237.63 241.811 232.499 241.764 225.061C241.626 204.441 241.729 183.821 241.734 163.201C241.734 162.448 241.66 161.695 241.582 160.159C219.686 173.671 198.309 186.867 176.668 200.218C176.573 199.344 176.447 198.73 176.447 198.111C176.447 195.373 176.564 192.63 176.46 189.895C176.4 188.26 176.966 187.196 178.336 186.339C184.982 182.164 191.503 177.79 198.231 173.753C220.641 160.306 243.121 146.968 265.583 133.603C266.59 133.006 267.661 132.521 269.062 131.799C269.062 133.175 269.062 134.096 269.062 135.013C269.062 146.548 268.962 158.087 269.109 169.621C269.148 172.702 268.543 174.878 265.993 177.002C261.305 180.909 260.916 188.096 264.585 192.621C268.366 197.281 275.332 198.211 280.37 194.728C286.675 190.371 286.788 181.995 280.491 176.362C279.117 175.129 278.603 173.9 278.603 172.092C278.625 150.533 278.499 128.974 278.62 107.419C278.638 104.429 277.579 102.989 275.107 101.608C237.624 80.7242 200.184 59.7622 162.779 38.7397C161.081 37.7835 159.884 37.8657 158.276 38.7613C133.45 52.6321 108.573 66.4164 83.7468 80.2959C64.3269 91.1512 44.9588 102.106 25.5735 113.022C24.7913 113.463 24.0437 113.974 22.9807 114.64C23.8104 115.194 24.3073 115.566 24.8389 115.877C28.015 117.716 31.2171 119.512 34.3846 121.372C59.029 135.853 83.695 150.299 108.296 164.858C119.882 171.715 131.32 178.828 142.871 185.746C144.561 186.759 145.312 187.927 145.23 189.9C145.114 192.708 145.239 195.52 145.23 198.332C145.23 198.921 145.083 199.505 144.971 200.309C123.403 187.066 102.134 174.004 80.3157 160.605L80.3244 160.6ZM290.953 120.58C294.432 118.564 297.427 116.833 300.944 114.796C297.323 112.788 294.263 111.088 290.953 109.249V120.576V120.58Z" fill="black"/>
<path d="M72.2436 117.102C76.7378 114.432 80.7912 112.027 85.1297 109.448C82.1524 106.203 81.1196 102.547 82.4722 98.4241C83.3148 95.8541 84.8921 93.8553 87.3336 92.6092C93.1803 89.6239 98.461 92.0035 102.389 99.5317C106.494 97.1607 110.617 94.8331 114.657 92.3713C115.059 92.129 115.085 91.056 115.063 90.3768C114.99 88.1832 114.337 85.8945 114.765 83.8177C115.954 78.0808 121.723 74.8272 127.345 76.3502C133.04 77.8904 136.549 83.7485 134.851 89.2692C134.31 91.0171 134.665 91.8261 136.143 92.7304C141.609 96.0748 146.998 99.5447 152.421 102.954C153.004 103.322 153.648 103.59 154.716 104.135C154.716 100.544 154.586 97.3381 154.759 94.1495C154.889 91.8218 154.258 90.5282 152.006 89.347C144.85 85.5959 141.544 77.1246 143.714 69.1638C145.788 61.5578 153.022 55.8641 160.649 56.3184C169.296 56.8332 176.041 62.051 177.865 70.1632C179.74 78.5134 176.128 85.9377 168.22 89.8057C166.837 90.4806 166.327 91.2896 166.362 92.791C166.444 96.5074 166.388 100.228 166.388 104.222C167.148 103.962 167.576 103.906 167.896 103.694C173.678 99.9124 179.421 96.0618 185.246 92.3496C186.754 91.3892 187.13 90.4979 186.737 88.6808C185.885 84.7653 186.922 81.1569 189.943 78.4485C192.855 75.8396 196.36 75.3507 200.059 76.5578C205.309 78.2668 208.373 84.7393 206.351 89.9354C205.949 90.9652 205.56 91.7742 206.787 92.4794C210.642 94.7033 214.479 96.966 218.606 99.3759C220.097 94.9499 222.867 92.1852 227.339 91.519C230.049 91.1166 232.486 91.9949 234.647 93.5654C239.871 97.3641 240.286 102.539 235.705 109.599C240.066 112.135 244.404 114.662 249.045 117.361C249.175 116.353 249.287 115.817 249.309 115.28C249.534 110.21 252.688 106.285 257.321 105.351C262.087 104.39 266.81 106.969 268.889 111.663C270.842 116.076 269.541 121.484 265.747 124.336C263.241 126.222 260.458 127.174 257.239 126.572C256.556 126.443 255.657 126.668 255.052 127.044C227.767 143.848 200.526 160.722 173.224 177.496C168.639 180.312 166.629 184.176 166.634 189.489C166.647 214.652 166.56 239.819 166.491 264.982C166.491 266.349 166.474 267.738 166.219 269.071C165.67 271.931 162.762 274.202 159.992 274.098C157.477 274.007 155.493 272.043 155.001 268.967C154.785 267.626 154.793 266.237 154.789 264.874C154.768 240.286 154.677 215.699 154.806 191.111C154.841 184.219 152.231 179.395 146.246 175.856C127.712 164.901 109.303 153.73 90.8814 142.581C82.4419 137.471 74.1018 132.201 65.6839 127.066C65.04 126.672 64.0721 126.521 63.3158 126.642C57.7673 127.52 52.3527 123.401 51.4322 117.508C50.4945 111.495 54.4139 106.047 60.2563 105.251C66.0598 104.46 71.3837 108.622 72.006 114.437C72.0794 115.142 72.127 115.847 72.235 117.102H72.2436ZM143.014 160.583C143.152 160.064 143.282 159.8 143.282 159.536C143.29 154.491 143.364 149.442 143.212 144.402C143.186 143.528 142.387 142.438 141.626 141.871C137.992 139.163 134.267 136.571 130.525 134.014C130.024 133.672 129.194 133.551 128.58 133.668C122.319 134.858 116.429 130.553 115.789 124.253C115.146 117.906 119.8 112.542 126.1 112.355C132.271 112.174 137.461 117.651 136.977 123.99C136.864 125.456 137.357 126.239 138.485 126.979C143.178 130.06 147.836 133.201 152.516 136.303C153.017 136.636 153.583 136.878 154.383 137.302C154.469 136.355 154.573 135.736 154.573 135.117C154.582 130.432 154.508 125.746 154.599 121.065C154.629 119.421 153.994 118.46 152.698 117.521C144.241 111.408 135.827 105.234 127.444 99.0168C126.476 98.2986 125.793 98.2121 124.765 98.8178C111.295 106.731 97.8041 114.601 84.326 122.493C83.6864 122.869 83.1031 123.345 82.1999 123.977C102.631 136.273 122.703 148.356 143.014 160.583ZM238.151 123.661C237.806 123.392 237.555 123.146 237.265 122.977C224.094 115.272 210.936 107.544 197.739 99.8821C194.454 97.9785 194.407 98.0736 191.451 100.644C191.071 100.972 190.656 101.262 190.254 101.561C182.96 106.952 175.683 112.364 168.354 117.712C166.945 118.741 166.288 119.888 166.331 121.683C166.435 126.006 166.331 130.332 166.349 134.659C166.349 135.481 166.534 136.303 166.673 137.471C167.593 136.909 168.198 136.558 168.781 136.182C173.444 133.183 178.059 130.112 182.787 127.221C184.347 126.27 184.904 125.318 184.723 123.436C184.273 118.785 186.469 115.185 190.522 113.268C194.446 111.417 199.048 112.234 202.306 115.362C205.508 118.439 206.545 123.111 204.912 127.079C203.166 131.31 198.439 134.213 193.677 134.096C192.661 134.07 191.468 134.161 190.652 134.672C186.875 137.043 183.15 139.509 179.529 142.113C178.751 142.671 178.077 143.917 178.042 144.874C177.869 149.698 177.921 154.53 177.912 159.359C177.912 159.83 178.016 160.302 178.116 161.133C198.214 148.59 218.075 136.195 238.151 123.661ZM155.092 141.806C154.945 143.091 154.828 143.632 154.828 144.173C154.828 151.164 154.828 158.156 154.867 165.148C154.884 168.107 158.756 171.205 161.69 170.664C165.208 170.015 166.556 168.401 166.534 164.832C166.5 158.13 166.465 151.424 166.409 144.722C166.405 143.982 166.271 143.243 166.133 141.854C162.338 146.423 158.773 146.565 155.087 141.806H155.092ZM160.675 80.1964C164.335 80.1964 167.269 77.3885 167.234 73.9273C167.204 70.4791 164.231 67.5197 160.748 67.4592C157.183 67.4029 154.02 70.4358 154.016 73.9187C154.011 77.2111 157.174 80.1964 160.67 80.1921L160.675 80.1964Z" fill="black"/>
<path d="M144.88 264.091C143.584 263.281 142.508 262.628 141.449 261.953C129.172 254.153 116.895 246.352 104.619 238.547C103.949 238.123 103.214 237.759 102.657 237.214C101.382 235.968 100.038 235.713 98.2101 235.873C91.4041 236.474 85.7907 227.873 88.4008 221.059C90.3583 215.949 95.8118 213.176 101.028 214.634C106.218 216.088 109.67 221.561 108.789 226.818C108.698 227.367 108.923 228.302 109.316 228.552C116.74 233.242 124.216 237.854 131.683 242.475C132.037 242.696 132.443 242.83 133.303 243.215C133.303 241.112 133.126 239.274 133.342 237.478C133.744 234.173 133.083 231.568 130.101 229.556C128.606 228.544 127.375 227.302 125.577 226.567C120.011 224.295 117.704 218.878 119.289 212.886C119.445 212.293 119.181 211.212 118.732 210.896C114.268 207.733 109.744 204.648 105.172 201.646C104.632 201.291 103.646 201.356 102.951 201.542C97.9076 202.875 93.2017 200.815 91.0454 196.242C88.8718 191.639 90.2157 185.806 94.0963 182.977C97.9595 180.16 104.07 180.679 107.626 184.167C109.523 186.031 110.751 188.216 111.157 190.929C111.291 191.82 112.125 192.802 112.907 193.369C116.701 196.108 120.612 198.682 124.432 201.391C125.473 202.13 126.29 203.186 127.305 203.973C127.984 204.497 128.822 205.116 129.613 205.15C136.523 205.457 142.503 213.453 138.748 220.384C138.489 220.86 138.826 222.058 139.284 222.448C140.758 223.707 142.486 224.659 143.968 225.905C144.595 226.432 145.222 227.397 145.226 228.163C145.26 239.628 145.196 251.089 145.139 262.555C145.139 262.953 145.01 263.355 144.885 264.086L144.88 264.091Z" fill="black"/>
<path d="M176.59 264.009C176.508 262.957 176.408 262.265 176.408 261.573C176.417 250.618 176.452 239.659 176.426 228.704C176.426 227.341 176.711 226.312 178.007 225.706C178.392 225.524 178.699 225.174 179.083 224.992C182.285 223.486 183.444 221.674 182.272 217.702C180.492 211.671 185.073 206.271 191.831 205.042C192.972 204.835 194.061 204.034 195.046 203.329C197.622 201.495 200.106 199.539 202.665 197.683C203.944 196.753 205.283 195.896 206.64 195.083C209.16 193.577 211.108 192.145 211.592 188.584C212.146 184.513 215.369 181.874 219.682 181.277C223.986 180.68 227.534 182.077 229.872 185.85C232.196 189.61 232.343 193.486 229.859 197.25C227.188 201.291 223.26 202.728 218.399 201.733C217.586 201.568 216.51 201.724 215.806 202.144C211.42 204.766 207.085 207.478 202.803 210.26C202.362 210.546 202.06 211.588 202.207 212.147C204.285 220.237 201.39 225.321 193.283 227.636C190.889 228.319 188.27 231.707 188.249 234.173C188.223 236.981 188.214 239.793 188.214 242.601C188.214 242.705 188.387 242.813 188.664 243.129C191.645 241.26 194.675 239.382 197.687 237.474C202.306 234.541 206.891 231.555 211.528 228.661C212.699 227.93 213.196 227.238 212.919 225.719C212.141 221.436 214.216 217.529 218.087 215.461C221.929 213.41 226.678 213.916 229.794 216.707C233.082 219.649 234.396 224.503 233.005 228.54C231.557 232.741 227.746 235.679 222.962 235.739C220.771 235.765 219.168 236.578 217.456 237.695C204.367 246.222 191.243 254.698 178.128 263.187C177.774 263.416 177.381 263.585 176.59 264.004V264.009Z" fill="black"/>
</svg>
